<?xml version="1.0" standalone="no"?>
<!DOCTYPE svg PUBLIC "-//W3C//DTD SVG 20010904//EN"
 "http://www.w3.org/TR/2001/REC-SVG-20010904/DTD/svg10.dtd">
<svg version="1.0" xmlns="http://www.w3.org/2000/svg"
 width="500.000000pt" height="500.000000pt" viewBox="0 0 500.000000 500.000000"
 preserveAspectRatio="xMidYMid meet">

  <defs>
    <filter id="blur">
        <feGaussianBlur in="SourceGraphic" stdDeviation="2" />
    </filter>
    <linearGradient id="customGradient" gradientUnits="userSpaceOnUse"
      x1="0" y1="0" x2="1000" y2="1000">
      <stop offset="0%" style="stop-color:#f1e488" /> 
      <stop offset="100%" style="stop-color:#7eb7af" />
    </linearGradient>
  </defs>


<rect width="0" height="0" fill="#040311" />

    <radialGradient id="grad70296093" cx="50%" cy="50%" r="50%" fx="50%" fy="50%">
        <stop offset="0%" style="stop-color:rgb(66, 118, 201); stop-opacity:0.3" />
        <stop offset="100%" style="stop-color:#040311; stop-opacity:0" />
    </radialGradient>
    <circle cx="7029" cy="6093" r="1486" fill="url(#grad70296093)" filter="url(#blur)" />
    
    <radialGradient id="grad39625785" cx="50%" cy="50%" r="50%" fx="50%" fy="50%">
        <stop offset="0%" style="stop-color:rgb(68, 24, 112); stop-opacity:0.3" />
        <stop offset="100%" style="stop-color:#040311; stop-opacity:0" />
    </radialGradient>
    <circle cx="3962" cy="5785" r="4510" fill="url(#grad39625785)" filter="url(#blur)" />
    
    <radialGradient id="grad47554023" cx="50%" cy="50%" r="50%" fx="50%" fy="50%">
        <stop offset="0%" style="stop-color:rgb(129, 148, 72); stop-opacity:0.3" />
        <stop offset="100%" style="stop-color:#040311; stop-opacity:0" />
    </radialGradient>
    <circle cx="4755" cy="4023" r="4483" fill="url(#grad47554023)" filter="url(#blur)" />
    
    <radialGradient id="grad62326346" cx="50%" cy="50%" r="50%" fx="50%" fy="50%">
        <stop offset="0%" style="stop-color:rgb(254, 234, 158); stop-opacity:0.3" />
        <stop offset="100%" style="stop-color:#040311; stop-opacity:0" />
    </radialGradient>
    <circle cx="6232" cy="6346" r="3983" fill="url(#grad62326346)" filter="url(#blur)" />
    
    <radialGradient id="grad11214419" cx="50%" cy="50%" r="50%" fx="50%" fy="50%">
        <stop offset="0%" style="stop-color:rgb(57, 4, 192); stop-opacity:0.3" />
        <stop offset="100%" style="stop-color:#040311; stop-opacity:0" />
    </radialGradient>
    <circle cx="1121" cy="4419" r="3643" fill="url(#grad11214419)" filter="url(#blur)" />
    
    <radialGradient id="grad93712537" cx="50%" cy="50%" r="50%" fx="50%" fy="50%">
        <stop offset="0%" style="stop-color:rgb(25, 14, 94); stop-opacity:0.3" />
        <stop offset="100%" style="stop-color:#040311; stop-opacity:0" />
    </radialGradient>
    <circle cx="9371" cy="2537" r="1494" fill="url(#grad93712537)" filter="url(#blur)" />
    
    <radialGradient id="grad63319844" cx="50%" cy="50%" r="50%" fx="50%" fy="50%">
        <stop offset="0%" style="stop-color:rgb(87, 244, 69); stop-opacity:0.3" />
        <stop offset="100%" style="stop-color:#040311; stop-opacity:0" />
    </radialGradient>
    <circle cx="6331" cy="9844" r="3616" fill="url(#grad63319844)" filter="url(#blur)" />
    
    <radialGradient id="grad88851673" cx="50%" cy="50%" r="50%" fx="50%" fy="50%">
        <stop offset="0%" style="stop-color:rgb(29, 111, 144); stop-opacity:0.3" />
        <stop offset="100%" style="stop-color:#040311; stop-opacity:0" />
    </radialGradient>
    <circle cx="8885" cy="1673" r="1040" fill="url(#grad88851673)" filter="url(#blur)" />
    
    <radialGradient id="grad60618428" cx="50%" cy="50%" r="50%" fx="50%" fy="50%">
        <stop offset="0%" style="stop-color:rgb(72, 95, 136); stop-opacity:0.3" />
        <stop offset="100%" style="stop-color:#040311; stop-opacity:0" />
    </radialGradient>
    <circle cx="6061" cy="8428" r="2880" fill="url(#grad60618428)" filter="url(#blur)" />
    
    <radialGradient id="grad35126047" cx="50%" cy="50%" r="50%" fx="50%" fy="50%">
        <stop offset="0%" style="stop-color:rgb(155, 216, 120); stop-opacity:0.3" />
        <stop offset="100%" style="stop-color:#040311; stop-opacity:0" />
    </radialGradient>
    <circle cx="3512" cy="6047" r="2908" fill="url(#grad35126047)" filter="url(#blur)" />
    
<g transform="translate(0.000000,500.000000) scale(0.100000,-0.100000)"
fill="#000000" stroke="none">
<path d="M50 4955 c0 -33 4 -45 15 -45 9 0 15 -9 15 -25 0 -16 6 -25 15 -25 8
0 15 -5 15 -11 0 -19 58 -69 80 -69 11 0 23 -7 26 -15 5 -12 25 -15 90 -15 68
0 84 3 84 15 0 9 9 15 25 15 14 0 25 5 25 10 0 6 7 10 15 10 8 0 15 7 15 15 0
8 7 15 15 15 8 0 15 7 15 15 0 8 7 15 15 15 9 0 15 9 15 25 0 14 5 25 10 25 6
0 10 20 10 45 0 33 -4 45 -15 45 -11 0 -15 -11 -15 -40 0 -22 -4 -40 -9 -40
-5 0 -12 -12 -15 -26 -8 -29 -29 -54 -45 -54 -6 0 -11 -7 -11 -15 0 -9 -9 -15
-25 -15 -14 0 -28 -7 -31 -15 -5 -12 -24 -15 -85 -15 -64 0 -79 3 -79 15 0 9
-10 15 -26 15 -26 0 -54 20 -54 39 0 6 -7 11 -15 11 -10 0 -15 10 -15 30 0 20
-5 30 -15 30 -11 0 -15 11 -15 40 0 29 -4 40 -15 40 -11 0 -15 -12 -15 -45z"/>
<path d="M250 4961 c0 -36 -3 -40 -27 -43 -39 -4 -42 -28 -4 -28 26 0 31 -4
31 -25 0 -14 5 -25 10 -25 6 0 10 11 10 25 0 16 6 25 15 25 9 0 15 -9 15 -25
0 -16 6 -25 15 -25 9 0 15 9 15 25 0 18 5 25 20 25 32 0 60 36 60 75 0 31 -3
35 -25 35 -22 0 -25 -4 -25 -40 0 -38 -2 -40 -30 -40 -28 0 -30 2 -30 40 0 36
-2 40 -25 40 -22 0 -25 -4 -25 -39z"/>
<path d="M1300 4955 c0 -33 4 -45 15 -45 9 0 15 -9 15 -21 0 -27 82 -109 110
-109 11 0 23 -7 26 -15 5 -12 25 -15 90 -15 68 0 84 3 84 15 0 9 9 15 25 15
14 0 25 5 25 10 0 6 7 10 15 10 8 0 15 7 15 15 0 8 7 15 15 15 8 0 15 7 15 15
0 8 7 15 15 15 9 0 15 9 15 25 0 14 5 25 10 25 6 0 10 20 10 45 0 33 -4 45
-15 45 -11 0 -15 -11 -15 -39 0 -25 -5 -41 -15 -45 -8 -3 -15 -17 -15 -31 0
-14 -5 -25 -11 -25 -14 0 -39 -25 -39 -39 0 -6 -13 -11 -30 -11 -20 0 -30 -5
-30 -15 0 -12 -16 -15 -80 -15 -64 0 -80 3 -80 15 0 9 -10 15 -26 15 -26 0
-54 20 -54 39 0 6 -7 11 -15 11 -10 0 -15 10 -15 30 0 20 -5 30 -15 30 -11 0
-15 11 -15 40 0 29 -4 40 -15 40 -11 0 -15 -12 -15 -45z"/>
<path d="M1500 4961 c0 -36 -3 -40 -27 -43 -39 -4 -42 -28 -4 -28 26 0 31 -4
31 -25 0 -14 5 -25 10 -25 6 0 10 11 10 25 0 16 6 25 15 25 9 0 15 -9 15 -25
0 -16 6 -25 15 -25 9 0 15 9 15 25 0 20 5 25 25 25 16 0 25 6 25 15 0 8 7 15
15 15 11 0 15 11 15 40 0 36 -2 40 -25 40 -22 0 -25 -4 -25 -40 0 -38 -2 -40
-30 -40 -28 0 -30 2 -30 40 0 36 -2 40 -25 40 -22 0 -25 -4 -25 -39z"/>
<path d="M2550 4955 c0 -33 4 -45 15 -45 9 0 15 -9 15 -25 0 -14 5 -25 10 -25
6 0 10 -7 10 -15 0 -8 7 -15 15 -15 8 0 15 -7 15 -15 0 -8 7 -15 15 -15 8 0
15 -4 15 -10 0 -5 11 -10 25 -10 16 0 25 -6 25 -15 0 -12 17 -15 90 -15 73 0
90 3 90 15 0 9 9 15 25 15 14 0 25 5 25 10 0 6 7 10 15 10 8 0 15 5 15 10 0 6
11 21 25 34 14 13 25 33 25 45 0 12 6 21 15 21 11 0 15 12 15 45 0 33 -4 45
-15 45 -11 0 -15 -11 -15 -40 0 -29 -4 -40 -15 -40 -10 0 -15 -10 -15 -30 0
-16 -5 -30 -11 -30 -14 0 -39 -25 -39 -39 0 -6 -13 -11 -30 -11 -20 0 -30 -5
-30 -15 0 -12 -16 -15 -80 -15 -64 0 -80 3 -80 15 0 9 -10 15 -26 15 -31 0
-84 50 -84 80 0 11 -7 23 -15 26 -10 4 -15 20 -15 45 0 28 -4 39 -15 39 -11 0
-15 -12 -15 -45z"/>
<path d="M2746 4960 c6 -40 6 -40 -25 -40 -21 0 -31 -5 -31 -15 0 -10 10 -15
30 -15 25 0 30 -4 30 -25 0 -14 5 -25 10 -25 6 0 10 11 10 25 0 16 6 25 15 25
9 0 15 -9 15 -25 0 -14 4 -25 10 -25 5 0 12 11 16 25 4 18 13 25 30 25 15 0
24 6 24 15 0 8 7 15 15 15 11 0 15 11 15 40 0 36 -2 40 -25 40 -22 0 -25 -4
-25 -40 0 -38 -2 -40 -30 -40 -28 0 -30 2 -30 40 0 38 -2 40 -30 40 -30 0 -30
-1 -24 -40z"/>
<path d="M3800 4955 c0 -25 5 -45 10 -45 6 0 10 -11 10 -25 0 -16 6 -25 15
-25 8 0 15 -7 15 -15 0 -8 7 -15 15 -15 8 0 15 -7 15 -15 0 -8 7 -15 15 -15 8
0 15 -4 15 -10 0 -5 11 -10 25 -10 16 0 25 -6 25 -15 0 -12 16 -15 84 -15 65
0 85 3 90 15 3 8 15 15 26 15 22 0 80 50 80 69 0 6 7 11 15 11 9 0 15 9 15 25
0 16 6 25 15 25 11 0 15 12 15 45 0 33 -4 45 -15 45 -11 0 -15 -11 -15 -40 0
-29 -4 -40 -15 -40 -10 0 -15 -10 -15 -30 0 -16 -5 -30 -11 -30 -7 0 -22 -11
-35 -25 -13 -14 -32 -25 -44 -25 -11 0 -20 -7 -20 -15 0 -12 -15 -15 -79 -15
-61 0 -80 3 -85 15 -3 8 -17 15 -31 15 -14 0 -25 5 -25 10 0 6 -7 10 -15 10
-8 0 -15 6 -15 14 0 8 -7 17 -16 20 -10 4 -13 13 -9 26 4 13 1 22 -9 26 -11 4
-16 19 -16 45 0 28 -4 39 -15 39 -11 0 -15 -12 -15 -45z"/>
<path d="M3990 4960 c0 -36 -2 -40 -25 -40 -16 0 -25 -6 -25 -15 0 -9 9 -15
24 -15 17 0 26 -7 30 -25 4 -14 11 -25 16 -25 6 0 10 11 10 25 0 16 6 25 15
25 9 0 15 -9 15 -25 0 -14 5 -25 10 -25 6 0 10 11 10 25 0 21 5 25 30 25 20 0
30 5 30 15 0 8 7 15 15 15 11 0 15 11 15 40 0 38 -2 40 -30 40 -28 0 -30 -2
-30 -40 0 -36 -2 -40 -25 -40 -22 0 -25 4 -25 40 0 38 -2 40 -30 40 -28 0 -30
-2 -30 -40z"/>
<path d="M870 4615 c0 -10 -10 -15 -30 -15 -20 0 -30 -5 -30 -15 0 -8 -7 -15
-15 -15 -8 0 -15 -5 -15 -11 0 -14 -25 -39 -39 -39 -6 0 -11 -13 -11 -30 0
-20 -5 -30 -15 -30 -12 0 -15 -16 -15 -85 0 -69 3 -85 15 -85 10 0 15 -10 15
-30 0 -16 5 -30 11 -30 14 0 39 -25 39 -39 0 -6 7 -11 15 -11 8 0 15 -7 15
-15 0 -10 10 -15 30 -15 20 0 30 -5 30 -15 0 -12 16 -15 80 -15 62 0 82 3 86
15 4 8 17 15 30 15 15 0 24 6 24 15 0 8 7 15 15 15 8 0 15 7 15 15 0 8 -7 15
-15 15 -8 0 -15 -7 -15 -15 0 -10 -10 -15 -30 -15 -16 0 -30 -4 -30 -10 0 -6
-33 -10 -80 -10 -47 0 -80 4 -80 10 0 6 -13 10 -30 10 -16 0 -30 5 -30 11 0 7
-11 22 -25 35 -14 13 -25 32 -25 44 0 11 -7 20 -15 20 -12 0 -15 16 -15 85 0
69 3 85 15 85 8 0 15 9 15 20 0 12 11 31 25 44 14 13 25 28 25 35 0 6 14 11
30 11 20 0 30 5 30 15 0 12 16 15 80 15 64 0 80 -3 80 -15 0 -10 10 -15 30
-15 20 0 30 -5 30 -15 0 -8 7 -15 15 -15 8 0 15 -7 15 -15 0 -8 5 -15 10 -15
6 0 10 -11 10 -24 0 -13 7 -26 15 -30 12 -4 15 -24 15 -86 0 -44 -4 -80 -9
-80 -5 0 -13 -10 -17 -22 -4 -13 -14 -28 -23 -35 -15 -11 -15 -12 1 -18 22 -9
58 24 58 52 0 13 5 23 10 23 6 0 10 35 10 85 0 50 -4 85 -10 85 -5 0 -10 10
-10 23 0 22 -31 57 -50 57 -6 0 -10 7 -10 15 0 8 -7 15 -15 15 -8 0 -15 7 -15
15 0 9 -9 15 -24 15 -13 0 -26 7 -30 15 -4 12 -24 15 -86 15 -64 0 -80 -3 -80
-15z"/>
<path d="M2114 4615 c-4 -8 -17 -15 -30 -15 -15 0 -24 -6 -24 -15 0 -8 -7 -15
-15 -15 -8 0 -15 -7 -15 -15 0 -8 -5 -15 -11 -15 -19 0 -39 -28 -39 -54 0 -16
-6 -26 -15 -26 -12 0 -15 -16 -15 -85 0 -69 3 -85 15 -85 9 0 15 -10 15 -26 0
-32 25 -58 48 -49 16 6 16 7 0 19 -10 7 -18 23 -18 35 0 12 -6 21 -15 21 -12
0 -15 16 -15 85 0 69 3 85 15 85 9 0 15 9 15 25 0 14 5 25 10 25 6 0 10 7 10
15 0 8 7 15 15 15 8 0 15 7 15 15 0 10 10 15 30 15 20 0 30 5 30 15 0 12 16
15 80 15 64 0 80 -3 80 -15 0 -10 10 -15 30 -15 17 0 30 -5 30 -11 0 -7 11
-22 25 -35 14 -13 25 -32 25 -44 0 -11 7 -23 15 -26 12 -5 15 -24 15 -85 0
-64 -3 -79 -15 -79 -8 0 -15 -9 -15 -20 0 -12 -11 -31 -25 -44 -14 -13 -25
-28 -25 -35 0 -6 -13 -11 -30 -11 -16 0 -30 -4 -30 -10 0 -6 -33 -10 -80 -10
-47 0 -80 4 -80 10 0 6 -13 10 -30 10 -20 0 -30 5 -30 15 0 8 -7 15 -15 15 -8
0 -15 -7 -15 -15 0 -8 7 -15 15 -15 8 0 15 -7 15 -15 0 -9 9 -15 24 -15 13 0
26 -7 30 -15 4 -12 24 -15 86 -15 62 0 82 3 86 15 4 8 17 15 30 15 15 0 24 6
24 15 0 8 7 15 15 15 8 0 15 7 15 15 0 8 5 15 11 15 19 0 39 28 39 54 0 16 6
26 15 26 12 0 15 16 15 85 0 69 -3 85 -15 85 -9 0 -15 10 -15 26 0 26 -20 54
-39 54 -6 0 -11 7 -11 15 0 8 -7 15 -15 15 -8 0 -15 7 -15 15 0 9 -9 15 -24
15 -13 0 -26 7 -30 15 -4 12 -24 15 -86 15 -62 0 -82 -3 -86 -15z"/>
<path d="M3364 4615 c-4 -8 -17 -15 -30 -15 -15 0 -24 -6 -24 -15 0 -8 -7 -15
-15 -15 -8 0 -15 -7 -15 -15 0 -8 -4 -15 -10 -15 -19 0 -50 -35 -50 -57 0 -13
-4 -23 -10 -23 -6 0 -10 -35 -10 -85 0 -50 4 -85 10 -85 6 0 10 -10 10 -23 0
-22 31 -57 50 -57 6 0 10 -7 10 -15 0 -8 7 -15 15 -15 8 0 15 -7 15 -15 0 -9
9 -15 24 -15 13 0 26 -7 30 -15 4 -12 24 -15 86 -15 64 0 80 3 80 15 0 10 10
15 30 15 20 0 30 5 30 15 0 8 7 15 15 15 8 0 15 7 15 15 0 8 5 15 11 15 19 0
39 28 39 54 0 16 6 26 15 26 12 0 15 16 15 85 0 69 -3 85 -15 85 -9 0 -15 10
-15 26 0 26 -20 54 -39 54 -6 0 -11 7 -11 15 0 8 -7 15 -15 15 -8 0 -15 7 -15
15 0 10 -10 15 -30 15 -20 0 -30 5 -30 15 0 12 -16 15 -80 15 -62 0 -82 -3
-86 -15z m166 -30 c0 -10 10 -15 30 -15 20 0 30 -5 30 -15 0 -8 5 -15 10 -15
6 0 10 -7 10 -15 0 -8 7 -15 15 -15 9 0 15 -9 15 -25 0 -14 7 -28 15 -31 11
-5 15 -24 15 -80 0 -57 -4 -76 -15 -80 -8 -4 -15 -17 -15 -30 0 -15 -6 -24
-15 -24 -8 0 -15 -4 -15 -10 0 -17 -39 -50 -60 -50 -11 0 -20 -4 -20 -10 0 -6
-33 -10 -80 -10 -47 0 -80 4 -80 10 0 6 -13 10 -30 10 -20 0 -30 5 -30 15 0 8
-7 15 -15 15 -8 0 -15 7 -15 15 0 8 -4 15 -10 15 -5 0 -10 11 -10 25 0 16 -6
25 -15 25 -12 0 -15 16 -15 85 0 69 3 85 15 85 9 0 15 9 15 25 0 14 5 25 10
25 6 0 10 7 10 15 0 8 7 15 15 15 8 0 15 7 15 15 0 10 10 15 30 15 20 0 30 5
30 15 0 12 16 15 80 15 64 0 80 -3 80 -15z"/>
<path d="M3390 4515 c0 -20 -5 -25 -25 -25 -16 0 -25 -6 -25 -15 0 -9 9 -15
25 -15 25 0 25 -1 25 -85 0 -84 0 -85 -25 -85 -34 0 -32 -18 3 -22 21 -2 28
-9 30 -30 4 -38 22 -36 22 2 0 20 5 30 15 30 10 0 15 -10 15 -30 0 -38 18 -40
22 -2 2 21 9 28 31 30 15 2 27 8 27 13 0 5 7 9 15 9 11 0 15 11 15 40 0 27 -5
43 -15 46 -8 4 -15 10 -15 15 0 5 7 9 15 9 10 0 15 10 15 30 0 20 -5 30 -15
30 -8 0 -15 7 -15 15 0 9 -9 15 -25 15 -20 0 -25 5 -25 25 0 16 -6 25 -15 25
-9 0 -15 -9 -15 -25 0 -16 -6 -25 -15 -25 -9 0 -15 9 -15 25 0 16 -6 25 -15
25 -9 0 -15 -9 -15 -25z m110 -85 c0 -25 -4 -30 -25 -30 -21 0 -25 5 -25 30 0
25 4 30 25 30 21 0 25 -5 25 -30z m4 -85 c8 -43 2 -55 -30 -55 -22 0 -24 4
-24 45 0 41 2 45 24 45 19 0 25 -7 30 -35z"/>
<path d="M4610 4615 c0 -9 -9 -15 -25 -15 -16 0 -25 -6 -25 -15 0 -8 -7 -15
-15 -15 -8 0 -15 -7 -15 -15 0 -8 -4 -15 -10 -15 -19 0 -50 -35 -50 -57 0 -13
-4 -23 -10 -23 -6 0 -10 -35 -10 -85 0 -50 4 -85 10 -85 6 0 10 -10 10 -23 0
-22 31 -57 50 -57 6 0 10 -7 10 -15 0 -8 7 -15 15 -15 8 0 15 -7 15 -15 0 -9
9 -15 25 -15 16 0 25 -6 25 -15 0 -12 16 -15 85 -15 69 0 85 3 85 15 0 10 10
15 30 15 20 0 30 5 30 15 0 8 7 15 15 15 8 0 15 5 15 11 0 14 25 39 39 39 6 0
11 14 11 30 0 20 5 30 15 30 12 0 15 16 15 85 0 69 -3 85 -15 85 -10 0 -15 10
-15 30 0 17 -5 30 -11 30 -14 0 -39 25 -39 39 0 6 -7 11 -15 11 -8 0 -15 7
-15 15 0 10 -10 15 -30 15 -20 0 -30 5 -30 15 0 12 -16 15 -85 15 -69 0 -85
-3 -85 -15z m170 -30 c0 -9 9 -15 25 -15 16 0 25 -6 25 -15 0 -8 7 -15 15 -15
8 0 15 -7 15 -15 0 -8 7 -15 15 -15 9 0 15 -9 15 -25 0 -14 7 -28 15 -31 11
-5 15 -24 15 -80 0 -57 -4 -76 -15 -80 -8 -4 -15 -17 -15 -30 0 -15 -6 -24
-15 -24 -8 0 -15 -7 -15 -15 0 -8 -7 -15 -15 -15 -8 0 -15 -7 -15 -15 0 -9 -9
-15 -25 -15 -14 0 -25 -4 -25 -10 0 -6 -33 -10 -80 -10 -47 0 -80 4 -80 10 0
6 -13 10 -30 10 -20 0 -30 5 -30 15 0 8 -7 15 -15 15 -8 0 -15 7 -15 15 0 8
-7 15 -15 15 -9 0 -15 9 -15 25 0 14 -4 25 -10 25 -6 0 -10 35 -10 85 0 50 4
85 10 85 6 0 10 11 10 25 0 16 6 25 15 25 8 0 15 7 15 15 0 8 7 15 15 15 8 0
15 7 15 15 0 9 9 15 24 15 13 0 26 7 30 15 4 12 24 15 86 15 64 0 80 -3 80
-15z"/>
<path d="M4640 4515 c0 -20 -5 -25 -25 -25 -16 0 -25 -6 -25 -15 0 -9 9 -15
25 -15 25 0 25 -1 25 -85 0 -84 0 -85 -25 -85 -14 0 -25 -4 -25 -10 0 -5 11
-10 25 -10 21 0 25 -5 25 -30 0 -20 5 -30 15 -30 10 0 15 10 15 30 0 20 5 30
15 30 10 0 15 -10 15 -30 0 -38 18 -40 22 -2 2 21 9 28 31 30 15 2 27 8 27 13
0 5 7 9 15 9 11 0 15 11 15 40 0 27 -5 43 -15 46 -8 4 -15 10 -15 15 0 5 7 9
15 9 10 0 15 10 15 30 0 20 -5 30 -15 30 -8 0 -15 7 -15 15 0 9 -9 15 -25 15
-20 0 -25 5 -25 25 0 16 -6 25 -15 25 -9 0 -15 -9 -15 -25 0 -16 -6 -25 -15
-25 -9 0 -15 9 -15 25 0 16 -6 25 -15 25 -9 0 -15 -9 -15 -25z m110 -85 c0
-25 -4 -30 -25 -30 -21 0 -25 5 -25 30 0 25 4 30 25 30 21 0 25 -5 25 -30z
m-2 -97 c3 -40 1 -43 -22 -43 -24 0 -26 3 -26 46 0 41 2 45 23 42 18 -2 23
-10 25 -45z"/>
<path d="M900 4515 c0 -21 -5 -25 -30 -25 -20 0 -30 -5 -30 -15 0 -10 10 -15
30 -15 l30 0 0 -85 0 -85 -30 0 c-38 0 -40 -18 -2 -22 21 -2 28 -9 30 -30 4
-36 20 -36 24 -1 4 39 28 42 28 4 0 -21 5 -31 15 -31 10 0 15 10 15 30 0 25 4
30 25 30 14 0 25 5 25 10 0 6 7 10 15 10 19 0 21 85 3 94 -10 5 -10 7 0 12 34
16 -3 94 -45 94 -18 0 -23 6 -23 25 0 16 -6 25 -15 25 -9 0 -15 -9 -15 -25 0
-16 -6 -25 -15 -25 -9 0 -15 9 -15 25 0 14 -4 25 -10 25 -5 0 -10 -11 -10 -25z
m110 -85 c0 -27 -3 -30 -30 -30 -27 0 -30 3 -30 30 0 27 3 30 30 30 27 0 30
-3 30 -30z m-2 -97 c3 -42 2 -43 -27 -43 -29 0 -31 2 -31 38 0 45 6 54 35 50
16 -2 21 -12 23 -45z"/>
<path d="M2140 4515 c0 -20 -5 -25 -25 -25 -16 0 -25 -6 -25 -15 0 -9 9 -15
24 -15 21 0 24 -5 30 -61 11 -106 10 -109 -24 -109 -38 0 -40 -18 -2 -22 21
-2 28 -9 30 -30 4 -36 20 -36 24 -1 4 39 28 42 28 4 0 -21 5 -31 15 -31 10 0
15 10 15 30 0 25 4 30 25 30 14 0 25 5 25 10 0 6 7 10 15 10 11 0 15 12 15 45
0 33 -4 45 -15 45 -8 0 -15 5 -15 10 0 6 7 10 15 10 10 0 15 10 15 30 0 20 -5
30 -15 30 -8 0 -15 7 -15 15 0 9 -9 15 -25 15 -20 0 -25 5 -25 25 0 16 -6 25
-15 25 -9 0 -15 -9 -15 -25 0 -16 -6 -25 -15 -25 -9 0 -15 9 -15 25 0 16 -6
25 -15 25 -9 0 -15 -9 -15 -25z m115 -85 c0 -20 -6 -26 -27 -28 -25 -3 -28 0
-28 28 0 28 3 31 28 28 21 -2 27 -8 27 -28z m3 -97 c3 -42 2 -43 -27 -43 -29
0 -31 2 -31 38 0 45 6 54 35 50 16 -2 21 -12 23 -45z"/>
<path d="M216 3985 c-3 -8 -15 -15 -26 -15 -22 0 -80 -50 -80 -69 0 -6 -7 -11
-15 -11 -9 0 -15 -9 -15 -24 0 -13 -7 -26 -15 -30 -22 -8 -22 -164 0 -172 8
-4 15 -17 15 -30 0 -15 6 -24 15 -24 8 0 15 -5 15 -11 0 -19 58 -69 80 -69 11
0 23 -7 26 -15 5 -12 25 -15 90 -15 68 0 84 3 84 15 0 9 9 15 25 15 14 0 25 5
25 10 0 6 7 10 15 10 8 0 15 7 15 15 0 8 7 15 15 15 8 0 15 7 15 15 0 8 7 15
15 15 9 0 15 9 15 25 0 14 5 25 10 25 6 0 10 37 10 90 0 53 -4 90 -10 90 -5 0
-10 11 -10 25 0 16 -6 25 -15 25 -8 0 -15 7 -15 15 0 8 -7 15 -15 15 -8 0 -15
7 -15 15 0 8 -7 15 -15 15 -8 0 -15 5 -15 10 0 6 -11 10 -25 10 -16 0 -25 6
-25 15 0 12 -16 15 -84 15 -65 0 -85 -3 -90 -15z m174 -30 c0 -9 9 -15 25 -15
16 0 25 -6 25 -15 0 -8 5 -15 11 -15 17 0 39 -27 39 -50 0 -11 7 -23 15 -26
12 -5 15 -24 15 -85 0 -43 -4 -79 -9 -79 -5 0 -12 -12 -15 -26 -8 -29 -29 -54
-45 -54 -6 0 -11 -7 -11 -15 0 -9 -9 -15 -25 -15 -14 0 -28 -7 -31 -15 -5 -12
-24 -15 -85 -15 -64 0 -79 3 -79 15 0 9 -10 15 -26 15 -26 0 -54 20 -54 39 0
6 -7 11 -15 11 -10 0 -15 10 -15 30 0 20 -5 30 -15 30 -12 0 -15 16 -15 80 0
64 3 80 15 80 10 0 15 10 15 30 0 20 5 30 15 30 8 0 15 5 15 11 0 19 28 39 54
39 16 0 26 6 26 15 0 12 16 15 85 15 69 0 85 -3 85 -15z"/>
<path d="M250 3890 c0 -27 -3 -30 -30 -30 -20 0 -30 -5 -30 -15 0 -10 10 -15
30 -15 l30 0 0 -79 c0 -79 0 -80 -27 -83 -39 -4 -42 -28 -4 -28 26 0 31 -4 31
-25 0 -14 5 -25 10 -25 6 0 10 11 10 25 0 16 6 25 15 25 9 0 15 -9 15 -25 0
-16 6 -25 15 -25 9 0 15 9 15 25 0 18 5 25 20 25 32 0 60 36 60 75 0 19 -4 35
-10 35 -5 0 -10 7 -10 15 0 8 5 15 10 15 6 0 10 11 10 25 0 14 -4 25 -10 25
-5 0 -10 7 -10 15 0 10 -10 15 -30 15 -27 0 -30 3 -30 30 0 20 -5 30 -15 30
-10 0 -15 -10 -15 -30 0 -16 -4 -30 -9 -30 -5 0 -11 14 -14 30 -4 17 -11 30
-17 30 -5 0 -10 -13 -10 -30z m110 -85 c0 -21 -5 -25 -30 -25 -25 0 -30 4 -30
25 0 21 5 25 30 25 25 0 30 -4 30 -25z m0 -95 c0 -38 -2 -40 -30 -40 -28 0
-30 2 -30 40 0 38 2 40 30 40 28 0 30 -2 30 -40z"/>
<path d="M1466 3985 c-3 -8 -15 -15 -26 -15 -28 0 -110 -82 -110 -109 0 -12
-6 -21 -15 -21 -12 0 -15 -17 -15 -90 0 -73 3 -90 15 -90 9 0 15 -9 15 -21 0
-27 82 -109 110 -109 11 0 23 -7 26 -15 5 -12 25 -15 90 -15 68 0 84 3 84 15
0 9 9 15 25 15 14 0 25 5 25 10 0 6 7 10 15 10 8 0 15 7 15 15 0 8 7 15 15 15
8 0 15 7 15 15 0 8 7 15 15 15 9 0 15 9 15 25 0 14 5 25 10 25 6 0 10 37 10
90 0 53 -4 90 -10 90 -5 0 -10 11 -10 25 0 16 -6 25 -15 25 -8 0 -15 7 -15 15
0 8 -7 15 -15 15 -8 0 -15 7 -15 15 0 8 -7 15 -15 15 -8 0 -15 5 -15 10 0 6
-11 10 -25 10 -16 0 -25 6 -25 15 0 12 -16 15 -84 15 -65 0 -85 -3 -90 -15z
m168 -30 c3 -8 17 -15 31 -15 16 0 25 -6 25 -15 0 -8 5 -15 11 -15 19 0 39
-28 39 -54 0 -16 6 -26 15 -26 12 0 15 -15 15 -79 0 -61 -3 -80 -15 -85 -8 -3
-15 -17 -15 -31 0 -14 -5 -25 -11 -25 -14 0 -39 -25 -39 -39 0 -6 -13 -11 -30
-11 -20 0 -30 -5 -30 -15 0 -12 -16 -15 -80 -15 -64 0 -80 3 -80 15 0 9 -10
15 -26 15 -26 0 -54 20 -54 39 0 6 -7 11 -15 11 -10 0 -15 10 -15 30 0 20 -5
30 -15 30 -12 0 -15 16 -15 80 0 64 3 80 15 80 10 0 15 10 15 30 0 20 5 30 15
30 8 0 15 5 15 11 0 19 28 39 54 39 16 0 26 6 26 15 0 12 15 15 79 15 61 0 80
-3 85 -15z"/>
<path d="M1500 3890 c0 -27 -3 -30 -30 -30 -20 0 -30 -5 -30 -15 0 -10 10 -15
30 -15 l30 0 0 -79 c0 -79 0 -80 -27 -83 -39 -4 -42 -28 -4 -28 26 0 31 -4 31
-25 0 -14 5 -25 10 -25 6 0 10 11 10 25 0 16 6 25 15 25 9 0 15 -9 15 -25 0
-16 6 -25 15 -25 9 0 15 9 15 25 0 20 5 25 25 25 16 0 25 6 25 15 0 8 7 15 15
15 11 0 15 11 15 40 0 29 -4 40 -15 40 -8 0 -15 5 -15 10 0 6 7 13 15 16 17 7
21 54 5 54 -5 0 -10 7 -10 15 0 10 -10 15 -30 15 -27 0 -30 3 -30 30 0 20 -5
30 -15 30 -10 0 -15 -10 -15 -30 0 -20 -5 -30 -15 -30 -10 0 -15 10 -15 30 0
17 -4 30 -10 30 -5 0 -10 -13 -10 -30z m110 -85 c0 -21 -5 -25 -30 -25 -25 0
-30 4 -30 25 0 21 5 25 30 25 25 0 30 -4 30 -25z m0 -95 c0 -38 -2 -40 -30
-40 -28 0 -30 2 -30 40 0 38 2 40 30 40 28 0 30 -2 30 -40z"/>
<path d="M2710 3985 c0 -9 -9 -15 -25 -15 -14 0 -25 -4 -25 -10 0 -5 -7 -10
-15 -10 -8 0 -15 -7 -15 -15 0 -8 -7 -15 -15 -15 -8 0 -15 -7 -15 -15 0 -8 -4
-15 -10 -15 -5 0 -10 -11 -10 -25 0 -16 -6 -25 -15 -25 -12 0 -15 -17 -15 -90
0 -73 3 -90 15 -90 9 0 15 -9 15 -25 0 -14 5 -25 10 -25 6 0 10 -7 10 -15 0
-8 7 -15 15 -15 8 0 15 -7 15 -15 0 -8 7 -15 15 -15 8 0 15 -4 15 -10 0 -5 11
-10 25 -10 16 0 25 -6 25 -15 0 -12 17 -15 90 -15 73 0 90 3 90 15 0 9 9 15
25 15 14 0 25 5 25 10 0 6 7 10 15 10 8 0 15 5 15 10 0 6 11 21 25 34 14 13
25 33 25 45 0 12 6 21 15 21 12 0 15 17 15 90 0 73 -3 90 -15 90 -9 0 -15 9
-15 21 0 12 -11 32 -25 45 -14 13 -25 28 -25 34 0 5 -7 10 -15 10 -8 0 -15 5
-15 10 0 6 -11 10 -25 10 -16 0 -25 6 -25 15 0 12 -17 15 -90 15 -73 0 -90 -3
-90 -15z m170 -30 c0 -10 10 -15 30 -15 17 0 30 -5 30 -11 0 -14 25 -39 39
-39 6 0 11 -13 11 -30 0 -20 5 -30 15 -30 12 0 15 -16 15 -80 0 -64 -3 -80
-15 -80 -10 0 -15 -10 -15 -30 0 -16 -5 -30 -11 -30 -14 0 -39 -25 -39 -39 0
-6 -13 -11 -30 -11 -20 0 -30 -5 -30 -15 0 -12 -16 -15 -80 -15 -64 0 -80 3
-80 15 0 9 -10 15 -26 15 -31 0 -84 50 -84 80 0 11 -7 23 -15 26 -12 5 -15 24
-15 84 0 60 3 79 15 84 8 3 15 15 15 26 0 28 52 80 80 80 11 0 23 7 26 15 5
12 24 15 85 15 64 0 79 -3 79 -15z"/>
<path d="M2747 3913 c-4 -3 -7 -17 -7 -30 0 -18 -5 -23 -25 -23 -16 0 -25 -6
-25 -15 0 -9 9 -15 25 -15 23 0 25 -4 25 -42 0 -24 3 -60 6 -80 6 -37 6 -38
-25 -38 -21 0 -31 -5 -31 -15 0 -10 10 -15 30 -15 25 0 30 -4 30 -25 0 -14 5
-25 10 -25 6 0 10 11 10 25 0 16 6 25 15 25 9 0 15 -9 15 -25 0 -14 4 -25 10
-25 5 0 12 11 16 25 4 18 13 25 30 25 15 0 24 6 24 15 0 8 7 15 15 15 11 0 15
11 15 40 0 29 -4 40 -15 40 -8 0 -15 7 -15 15 0 8 7 15 15 15 22 0 19 36 -5
60 -11 11 -29 20 -40 20 -16 0 -20 7 -20 30 0 20 -5 30 -15 30 -10 0 -15 -10
-15 -30 0 -20 -5 -30 -15 -30 -10 0 -15 10 -15 30 0 29 -9 38 -23 23z m103
-108 c0 -20 -5 -25 -25 -25 -20 0 -25 5 -25 25 0 20 5 25 25 25 20 0 25 -5 25
-25z m10 -95 c0 -38 -2 -40 -30 -40 -28 0 -30 2 -30 40 0 38 2 40 30 40 28 0
30 -2 30 -40z"/>
<path d="M3960 3985 c0 -9 -9 -15 -25 -15 -14 0 -25 -4 -25 -10 0 -5 -7 -10
-15 -10 -8 0 -15 -7 -15 -15 0 -8 -7 -15 -15 -15 -8 0 -15 -7 -15 -15 0 -8 -7
-15 -15 -15 -9 0 -15 -9 -15 -25 0 -14 -4 -25 -10 -25 -6 0 -10 -37 -10 -90 0
-53 4 -90 10 -90 6 0 10 -11 10 -25 0 -16 6 -25 15 -25 8 0 15 -7 15 -15 0 -8
7 -15 15 -15 8 0 15 -7 15 -15 0 -8 7 -15 15 -15 8 0 15 -4 15 -10 0 -5 11
-10 25 -10 16 0 25 -6 25 -15 0 -12 16 -15 84 -15 65 0 85 3 90 15 3 8 15 15
26 15 22 0 80 50 80 69 0 6 7 11 15 11 9 0 15 9 15 25 0 16 6 25 15 25 12 0
15 17 15 90 0 73 -3 90 -15 90 -9 0 -15 9 -15 25 0 16 -6 25 -15 25 -8 0 -15
5 -15 11 0 19 -58 69 -80 69 -11 0 -23 7 -26 15 -5 12 -25 15 -90 15 -68 0
-84 -3 -84 -15z m170 -30 c0 -10 10 -15 30 -15 17 0 30 -5 30 -11 0 -14 25
-39 39 -39 6 0 11 -13 11 -30 0 -20 5 -30 15 -30 12 0 15 -16 15 -80 0 -64 -3
-80 -15 -80 -10 0 -15 -10 -15 -30 0 -16 -5 -30 -11 -30 -7 0 -22 -11 -35 -25
-13 -14 -32 -25 -44 -25 -11 0 -20 -7 -20 -15 0 -12 -15 -15 -79 -15 -61 0
-80 3 -85 15 -3 8 -17 15 -31 15 -14 0 -25 5 -25 10 0 6 -7 10 -15 10 -8 0
-15 6 -15 14 0 8 -7 17 -16 20 -10 4 -13 13 -9 26 4 13 1 22 -9 26 -13 5 -16
23 -16 85 0 46 4 79 10 79 6 0 10 14 10 30 0 20 5 30 15 30 8 0 15 7 15 15 0
8 7 15 15 15 8 0 15 5 15 10 0 6 11 10 25 10 14 0 28 7 31 15 5 12 24 15 85
15 64 0 79 -3 79 -15z"/>
<path d="M3990 3890 c0 -25 -4 -30 -25 -30 -16 0 -25 -6 -25 -15 0 -9 9 -15
25 -15 25 0 25 -1 25 -80 0 -79 0 -80 -25 -80 -16 0 -25 -6 -25 -15 0 -9 9
-15 24 -15 17 0 26 -7 30 -25 4 -14 11 -25 16 -25 6 0 10 11 10 25 0 16 6 25
15 25 9 0 15 -9 15 -25 0 -14 5 -25 10 -25 6 0 10 11 10 25 0 21 5 25 30 25
20 0 30 5 30 15 0 8 7 15 15 15 11 0 15 11 15 40 0 29 -4 40 -15 40 -8 0 -15
7 -15 15 0 8 7 15 15 15 9 0 15 9 15 25 0 16 -6 25 -15 25 -8 0 -15 7 -15 15
0 9 -9 15 -24 15 -19 0 -25 6 -28 27 -4 39 -28 42 -28 4 0 -21 -5 -31 -15 -31
-10 0 -15 10 -15 30 0 20 -5 30 -15 30 -10 0 -15 -10 -15 -30z m110 -85 c0
-20 -5 -25 -25 -25 -20 0 -25 5 -25 25 0 20 5 25 25 25 20 0 25 -5 25 -25z m0
-95 c0 -36 -2 -40 -25 -40 -22 0 -25 4 -25 40 0 36 3 40 25 40 23 0 25 -4 25
-40z"/>
<path d="M870 3365 c0 -10 -10 -15 -30 -15 -20 0 -30 -5 -30 -15 0 -8 -7 -15
-15 -15 -8 0 -15 -5 -15 -11 0 -14 -25 -39 -39 -39 -6 0 -11 -13 -11 -30 0
-20 -5 -30 -15 -30 -12 0 -15 -16 -15 -85 0 -69 3 -85 15 -85 10 0 15 -10 15
-30 0 -16 5 -30 11 -30 14 0 39 -25 39 -39 0 -6 7 -11 15 -11 8 0 15 -7 15
-15 0 -10 10 -15 30 -15 20 0 30 -5 30 -15 0 -12 16 -15 80 -15 62 0 82 3 86
15 4 8 17 15 30 15 15 0 24 6 24 15 0 8 7 15 15 15 8 0 15 7 15 15 0 8 -7 15
-15 15 -8 0 -15 -7 -15 -15 0 -10 -10 -15 -30 -15 -16 0 -30 -4 -30 -10 0 -6
-33 -10 -80 -10 -47 0 -80 4 -80 10 0 6 -13 10 -30 10 -16 0 -30 5 -30 11 0 7
-11 22 -25 35 -14 13 -25 32 -25 44 0 11 -7 20 -15 20 -12 0 -15 16 -15 85 0
69 3 85 15 85 8 0 15 9 15 20 0 12 11 31 25 44 14 13 25 28 25 35 0 6 14 11
30 11 20 0 30 5 30 15 0 12 16 15 80 15 64 0 80 -3 80 -15 0 -10 10 -15 30
-15 20 0 30 -5 30 -15 0 -8 7 -15 15 -15 8 0 15 -7 15 -15 0 -8 5 -15 10 -15
6 0 10 -11 10 -25 0 -14 7 -28 15 -31 12 -5 15 -24 15 -85 0 -43 -4 -79 -9
-79 -5 0 -13 -10 -17 -22 -4 -13 -14 -28 -23 -35 -15 -11 -15 -12 1 -18 22 -9
58 24 58 52 0 13 5 23 10 23 6 0 10 35 10 85 0 50 -4 85 -10 85 -5 0 -10 10
-10 23 0 22 -31 57 -50 57 -6 0 -10 7 -10 15 0 8 -7 15 -15 15 -8 0 -15 7 -15
15 0 9 -9 15 -24 15 -13 0 -26 7 -30 15 -4 12 -24 15 -86 15 -64 0 -80 -3 -80
-15z"/>
<path d="M2114 3365 c-4 -8 -17 -15 -30 -15 -15 0 -24 -6 -24 -15 0 -8 -7 -15
-15 -15 -8 0 -15 -7 -15 -15 0 -8 -5 -15 -11 -15 -19 0 -39 -28 -39 -54 0 -16
-6 -26 -15 -26 -12 0 -15 -16 -15 -85 0 -69 3 -85 15 -85 9 0 15 -10 15 -26 0
-32 25 -58 48 -49 16 6 16 7 0 19 -10 7 -18 23 -18 35 0 12 -6 21 -15 21 -12
0 -15 16 -15 85 0 69 3 85 15 85 9 0 15 9 15 25 0 14 5 25 10 25 6 0 10 7 10
15 0 8 7 15 15 15 8 0 15 7 15 15 0 10 10 15 30 15 20 0 30 5 30 15 0 12 16
15 80 15 64 0 80 -3 80 -15 0 -10 10 -15 30 -15 17 0 30 -5 30 -11 0 -7 11
-22 25 -35 14 -13 25 -32 25 -44 0 -11 7 -23 15 -26 12 -5 15 -24 15 -85 0
-64 -3 -79 -15 -79 -8 0 -15 -9 -15 -20 0 -12 -11 -31 -25 -44 -14 -13 -25
-28 -25 -35 0 -6 -13 -11 -30 -11 -16 0 -30 -4 -30 -10 0 -6 -33 -10 -80 -10
-47 0 -80 4 -80 10 0 6 -13 10 -30 10 -20 0 -30 5 -30 15 0 8 -7 15 -15 15 -8
0 -15 -7 -15 -15 0 -8 7 -15 15 -15 8 0 15 -7 15 -15 0 -9 9 -15 24 -15 13 0
26 -7 30 -15 4 -12 24 -15 86 -15 62 0 82 3 86 15 4 8 17 15 30 15 15 0 24 6
24 15 0 8 7 15 15 15 8 0 15 7 15 15 0 8 5 15 11 15 19 0 39 28 39 54 0 16 6
26 15 26 12 0 15 16 15 85 0 69 -3 85 -15 85 -9 0 -15 10 -15 26 0 26 -20 54
-39 54 -6 0 -11 7 -11 15 0 8 -7 15 -15 15 -8 0 -15 7 -15 15 0 9 -9 15 -24
15 -13 0 -26 7 -30 15 -4 12 -24 15 -86 15 -62 0 -82 -3 -86 -15z"/>
<path d="M3364 3365 c-4 -8 -17 -15 -30 -15 -15 0 -24 -6 -24 -15 0 -8 -7 -15
-15 -15 -8 0 -15 -7 -15 -15 0 -8 -4 -15 -10 -15 -19 0 -50 -35 -50 -57 0 -13
-4 -23 -10 -23 -6 0 -10 -35 -10 -85 0 -50 4 -85 10 -85 6 0 10 -10 10 -23 0
-22 31 -57 50 -57 6 0 10 -7 10 -15 0 -8 7 -15 15 -15 8 0 15 -7 15 -15 0 -9
9 -15 24 -15 13 0 26 -7 30 -15 4 -12 24 -15 86 -15 64 0 80 3 80 15 0 10 10
15 30 15 20 0 30 5 30 15 0 8 7 15 15 15 8 0 15 7 15 15 0 8 5 15 11 15 19 0
39 28 39 54 0 16 6 26 15 26 12 0 15 16 15 85 0 69 -3 85 -15 85 -9 0 -15 10
-15 26 0 26 -20 54 -39 54 -6 0 -11 7 -11 15 0 8 -7 15 -15 15 -8 0 -15 7 -15
15 0 10 -10 15 -30 15 -20 0 -30 5 -30 15 0 12 -16 15 -80 15 -62 0 -82 -3
-86 -15z m166 -30 c0 -10 10 -15 30 -15 20 0 30 -5 30 -15 0 -8 5 -15 10 -15
6 0 10 -7 10 -15 0 -8 7 -15 15 -15 9 0 15 -9 15 -25 0 -14 7 -28 15 -31 11
-5 15 -24 15 -80 0 -57 -4 -76 -15 -80 -8 -4 -15 -17 -15 -30 0 -15 -6 -24
-15 -24 -8 0 -15 -4 -15 -10 0 -17 -39 -50 -60 -50 -11 0 -20 -4 -20 -10 0 -6
-33 -10 -80 -10 -47 0 -80 4 -80 10 0 6 -13 10 -30 10 -20 0 -30 5 -30 15 0 8
-7 15 -15 15 -8 0 -15 7 -15 15 0 8 -4 15 -10 15 -5 0 -10 11 -10 25 0 16 -6
25 -15 25 -12 0 -15 16 -15 85 0 69 3 85 15 85 9 0 15 9 15 25 0 14 5 25 10
25 6 0 10 7 10 15 0 8 7 15 15 15 8 0 15 7 15 15 0 10 10 15 30 15 20 0 30 5
30 15 0 12 16 15 80 15 64 0 80 -3 80 -15z"/>
<path d="M3390 3265 c0 -20 -5 -25 -25 -25 -16 0 -25 -6 -25 -15 0 -9 9 -15
25 -15 25 0 25 -1 25 -85 0 -84 0 -85 -25 -85 -34 0 -32 -18 3 -22 21 -2 28
-9 30 -30 4 -38 22 -36 22 2 0 20 5 30 15 30 10 0 15 -10 15 -30 0 -38 18 -40
22 -2 2 21 9 28 31 30 15 2 27 8 27 13 0 5 7 9 15 9 11 0 15 11 15 40 0 27 -5
43 -15 46 -8 4 -15 10 -15 15 0 5 7 9 15 9 10 0 15 10 15 30 0 20 -5 30 -15
30 -8 0 -15 7 -15 15 0 9 -9 15 -25 15 -20 0 -25 5 -25 25 0 16 -6 25 -15 25
-9 0 -15 -9 -15 -25 0 -16 -6 -25 -15 -25 -9 0 -15 9 -15 25 0 16 -6 25 -15
25 -9 0 -15 -9 -15 -25z m110 -85 c0 -25 -4 -30 -25 -30 -21 0 -25 5 -25 30 0
25 4 30 25 30 21 0 25 -5 25 -30z m3 -87 c5 -47 2 -53 -29 -53 -22 0 -24 4
-24 45 0 41 2 45 24 45 20 0 25 -6 29 -37z"/>
<path d="M4610 3365 c0 -9 -9 -15 -25 -15 -16 0 -25 -6 -25 -15 0 -8 -7 -15
-15 -15 -8 0 -15 -7 -15 -15 0 -8 -4 -15 -10 -15 -19 0 -50 -35 -50 -57 0 -13
-4 -23 -10 -23 -6 0 -10 -35 -10 -85 0 -50 4 -85 10 -85 6 0 10 -10 10 -23 0
-22 31 -57 50 -57 6 0 10 -7 10 -15 0 -8 7 -15 15 -15 8 0 15 -7 15 -15 0 -9
9 -15 25 -15 16 0 25 -6 25 -15 0 -12 16 -15 85 -15 69 0 85 3 85 15 0 10 10
15 30 15 20 0 30 5 30 15 0 8 7 15 15 15 8 0 15 5 15 11 0 14 25 39 39 39 6 0
11 14 11 30 0 20 5 30 15 30 12 0 15 16 15 85 0 69 -3 85 -15 85 -10 0 -15 10
-15 30 0 17 -5 30 -11 30 -14 0 -39 25 -39 39 0 6 -7 11 -15 11 -8 0 -15 7
-15 15 0 10 -10 15 -30 15 -20 0 -30 5 -30 15 0 12 -16 15 -85 15 -69 0 -85
-3 -85 -15z m170 -30 c0 -9 9 -15 25 -15 16 0 25 -6 25 -15 0 -8 7 -15 15 -15
8 0 15 -7 15 -15 0 -8 7 -15 15 -15 9 0 15 -9 15 -25 0 -14 7 -28 15 -31 11
-5 15 -24 15 -80 0 -57 -4 -76 -15 -80 -8 -4 -15 -17 -15 -30 0 -15 -6 -24
-15 -24 -8 0 -15 -7 -15 -15 0 -8 -7 -15 -15 -15 -8 0 -15 -7 -15 -15 0 -9 -9
-15 -25 -15 -14 0 -25 -4 -25 -10 0 -6 -33 -10 -80 -10 -47 0 -80 4 -80 10 0
6 -13 10 -30 10 -20 0 -30 5 -30 15 0 8 -7 15 -15 15 -8 0 -15 7 -15 15 0 8
-7 15 -15 15 -9 0 -15 9 -15 25 0 14 -4 25 -10 25 -6 0 -10 35 -10 85 0 50 4
85 10 85 6 0 10 11 10 25 0 16 6 25 15 25 8 0 15 7 15 15 0 8 7 15 15 15 8 0
15 7 15 15 0 9 9 15 24 15 13 0 26 7 30 15 4 12 24 15 86 15 64 0 80 -3 80
-15z"/>
<path d="M4640 3265 c0 -20 -5 -25 -25 -25 -16 0 -25 -6 -25 -15 0 -9 9 -15
25 -15 25 0 25 -1 25 -85 0 -84 0 -85 -25 -85 -14 0 -25 -4 -25 -10 0 -5 11
-10 25 -10 21 0 25 -5 25 -30 0 -20 5 -30 15 -30 10 0 15 10 15 30 0 20 5 30
15 30 10 0 15 -10 15 -30 0 -38 18 -40 22 -2 2 21 9 28 31 30 15 2 27 8 27 13
0 5 7 9 15 9 11 0 15 11 15 40 0 27 -5 43 -15 46 -8 4 -15 10 -15 15 0 5 7 9
15 9 10 0 15 10 15 30 0 20 -5 30 -15 30 -8 0 -15 7 -15 15 0 9 -9 15 -25 15
-20 0 -25 5 -25 25 0 16 -6 25 -15 25 -9 0 -15 -9 -15 -25 0 -16 -6 -25 -15
-25 -9 0 -15 9 -15 25 0 16 -6 25 -15 25 -9 0 -15 -9 -15 -25z m110 -85 c0
-25 -4 -30 -25 -30 -21 0 -25 5 -25 30 0 25 4 30 25 30 21 0 25 -5 25 -30z
m-2 -97 c3 -40 1 -43 -22 -43 -24 0 -26 3 -26 46 0 41 2 45 23 42 18 -2 23
-10 25 -45z"/>
<path d="M900 3265 c0 -21 -5 -25 -30 -25 -20 0 -30 -5 -30 -15 0 -10 10 -15
30 -15 l30 0 0 -85 0 -85 -30 0 c-38 0 -40 -18 -2 -22 21 -2 28 -9 30 -30 4
-36 20 -36 24 -1 4 39 28 42 28 4 0 -21 5 -31 15 -31 10 0 15 10 15 30 0 25 4
30 25 30 14 0 25 5 25 10 0 6 7 10 15 10 19 0 21 85 3 94 -10 5 -10 7 0 12 34
16 -3 94 -45 94 -18 0 -23 6 -23 25 0 16 -6 25 -15 25 -9 0 -15 -9 -15 -25 0
-16 -6 -25 -15 -25 -9 0 -15 9 -15 25 0 14 -4 25 -10 25 -5 0 -10 -11 -10 -25z
m110 -85 c0 -27 -3 -30 -30 -30 -27 0 -30 3 -30 30 0 27 3 30 30 30 27 0 30
-3 30 -30z m-2 -97 c3 -42 2 -43 -27 -43 -29 0 -31 2 -31 38 0 45 6 54 35 50
16 -2 21 -12 23 -45z"/>
<path d="M2140 3265 c0 -20 -5 -25 -25 -25 -16 0 -25 -6 -25 -15 0 -9 9 -15
24 -15 21 0 24 -5 30 -61 11 -106 10 -109 -24 -109 -38 0 -40 -18 -2 -22 21
-2 28 -9 30 -30 4 -36 20 -36 24 -1 4 39 28 42 28 4 0 -21 5 -31 15 -31 10 0
15 10 15 30 0 25 4 30 25 30 14 0 25 5 25 10 0 6 7 10 15 10 11 0 15 12 15 45
0 33 -4 45 -15 45 -8 0 -15 5 -15 10 0 6 7 10 15 10 10 0 15 10 15 30 0 20 -5
30 -15 30 -8 0 -15 7 -15 15 0 9 -9 15 -25 15 -20 0 -25 5 -25 25 0 16 -6 25
-15 25 -9 0 -15 -9 -15 -25 0 -16 -6 -25 -15 -25 -9 0 -15 9 -15 25 0 16 -6
25 -15 25 -9 0 -15 -9 -15 -25z m115 -85 c0 -20 -6 -26 -27 -28 -25 -3 -28 0
-28 28 0 28 3 31 28 28 21 -2 27 -8 27 -28z m3 -97 c3 -42 2 -43 -27 -43 -29
0 -31 2 -31 38 0 45 6 54 35 50 16 -2 21 -12 23 -45z"/>
<path d="M216 2735 c-3 -8 -15 -15 -26 -15 -22 0 -80 -50 -80 -69 0 -6 -7 -11
-15 -11 -9 0 -15 -9 -15 -24 0 -13 -7 -26 -15 -30 -12 -4 -15 -24 -15 -91 0
-69 3 -85 15 -85 9 0 15 -9 15 -25 0 -16 6 -25 15 -25 8 0 15 -5 15 -11 0 -19
58 -69 80 -69 11 0 23 -7 26 -15 5 -12 25 -15 90 -15 68 0 84 3 84 15 0 9 9
15 25 15 14 0 25 5 25 10 0 6 7 10 15 10 8 0 15 7 15 15 0 8 7 15 15 15 8 0
15 7 15 15 0 8 7 15 15 15 9 0 15 9 15 25 0 14 5 25 10 25 6 0 10 37 10 90 0
53 -4 90 -10 90 -5 0 -10 11 -10 25 0 16 -6 25 -15 25 -8 0 -15 7 -15 15 0 8
-7 15 -15 15 -8 0 -15 7 -15 15 0 8 -7 15 -15 15 -8 0 -15 5 -15 10 0 6 -11
10 -25 10 -16 0 -25 6 -25 15 0 12 -16 15 -84 15 -65 0 -85 -3 -90 -15z m174
-30 c0 -9 9 -15 25 -15 16 0 25 -6 25 -15 0 -8 5 -15 11 -15 17 0 39 -27 39
-50 0 -11 7 -23 15 -26 12 -5 15 -24 15 -85 0 -43 -4 -79 -9 -79 -5 0 -12 -12
-15 -26 -8 -29 -29 -54 -45 -54 -6 0 -11 -7 -11 -15 0 -9 -9 -15 -25 -15 -14
0 -28 -7 -31 -15 -5 -12 -24 -15 -85 -15 -64 0 -79 3 -79 15 0 9 -10 15 -26
15 -26 0 -54 20 -54 39 0 6 -7 11 -15 11 -10 0 -15 10 -15 30 0 20 -5 30 -15
30 -12 0 -15 16 -15 80 0 64 3 80 15 80 10 0 15 10 15 30 0 20 5 30 15 30 8 0
15 5 15 11 0 19 28 39 54 39 16 0 26 6 26 15 0 12 16 15 85 15 69 0 85 -3 85
-15z"/>
<path d="M250 2641 c0 -28 -3 -31 -30 -31 -20 0 -30 -5 -30 -15 0 -10 10 -15
30 -15 l30 0 0 -79 c0 -79 0 -80 -27 -83 -39 -4 -42 -28 -4 -28 26 0 31 -4 31
-25 0 -14 5 -25 10 -25 6 0 10 11 10 25 0 16 6 25 15 25 9 0 15 -9 15 -25 0
-16 6 -25 15 -25 9 0 15 9 15 25 0 18 5 25 20 25 32 0 60 36 60 75 0 19 -4 35
-10 35 -5 0 -10 7 -10 15 0 8 5 15 10 15 6 0 10 11 10 25 0 14 -4 25 -10 25
-5 0 -10 7 -10 15 0 10 -10 15 -30 15 -27 0 -30 3 -30 30 0 20 -5 30 -15 30
-10 0 -15 -10 -15 -30 0 -37 -18 -40 -22 -3 -4 39 -28 42 -28 4z m110 -86 c0
-21 -5 -25 -30 -25 -25 0 -30 4 -30 25 0 21 5 25 30 25 25 0 30 -4 30 -25z m0
-95 c0 -38 -2 -40 -30 -40 -28 0 -30 2 -30 40 0 38 2 40 30 40 28 0 30 -2 30
-40z"/>
<path d="M1466 2735 c-3 -8 -15 -15 -26 -15 -28 0 -110 -82 -110 -109 0 -12
-6 -21 -15 -21 -12 0 -15 -17 -15 -90 0 -73 3 -90 15 -90 9 0 15 -9 15 -21 0
-27 82 -109 110 -109 11 0 23 -7 26 -15 5 -12 25 -15 90 -15 68 0 84 3 84 15
0 9 9 15 25 15 14 0 25 5 25 10 0 6 7 10 15 10 8 0 15 7 15 15 0 8 7 15 15 15
8 0 15 7 15 15 0 8 7 15 15 15 9 0 15 9 15 25 0 14 5 25 10 25 6 0 10 37 10
90 0 53 -4 90 -10 90 -5 0 -10 11 -10 25 0 16 -6 25 -15 25 -8 0 -15 7 -15 15
0 8 -7 15 -15 15 -8 0 -15 7 -15 15 0 8 -7 15 -15 15 -8 0 -15 5 -15 10 0 6
-11 10 -25 10 -16 0 -25 6 -25 15 0 12 -16 15 -84 15 -65 0 -85 -3 -90 -15z
m168 -30 c3 -8 17 -15 31 -15 16 0 25 -6 25 -15 0 -8 5 -15 11 -15 19 0 39
-28 39 -54 0 -16 6 -26 15 -26 12 0 15 -15 15 -79 0 -61 -3 -80 -15 -85 -8 -3
-15 -17 -15 -31 0 -14 -5 -25 -11 -25 -14 0 -39 -25 -39 -39 0 -6 -13 -11 -30
-11 -20 0 -30 -5 -30 -15 0 -12 -16 -15 -80 -15 -64 0 -80 3 -80 15 0 9 -10
15 -26 15 -26 0 -54 20 -54 39 0 6 -7 11 -15 11 -10 0 -15 10 -15 30 0 20 -5
30 -15 30 -12 0 -15 16 -15 80 0 64 3 80 15 80 10 0 15 10 15 30 0 20 5 30 15
30 8 0 15 5 15 11 0 19 28 39 54 39 16 0 26 6 26 15 0 12 15 15 79 15 61 0 80
-3 85 -15z"/>
<path d="M1500 2640 c0 -27 -3 -30 -30 -30 -20 0 -30 -5 -30 -15 0 -10 10 -15
30 -15 l30 0 0 -79 c0 -79 0 -80 -27 -83 -39 -4 -42 -28 -4 -28 26 0 31 -4 31
-25 0 -14 5 -25 10 -25 6 0 10 11 10 25 0 16 6 25 15 25 9 0 15 -9 15 -25 0
-16 6 -25 15 -25 9 0 15 9 15 25 0 20 5 25 25 25 16 0 25 6 25 15 0 8 7 15 15
15 11 0 15 11 15 40 0 29 -4 40 -15 40 -8 0 -15 5 -15 10 0 6 7 13 15 16 17 7
21 54 5 54 -5 0 -10 7 -10 15 0 10 -10 15 -30 15 -27 0 -30 3 -30 30 0 20 -5
30 -15 30 -10 0 -15 -10 -15 -30 0 -20 -5 -30 -15 -30 -10 0 -15 10 -15 30 0
17 -4 30 -10 30 -5 0 -10 -13 -10 -30z m110 -85 c0 -21 -5 -25 -30 -25 -25 0
-30 4 -30 25 0 21 5 25 30 25 25 0 30 -4 30 -25z m0 -95 c0 -38 -2 -40 -30
-40 -28 0 -30 2 -30 40 0 38 2 40 30 40 28 0 30 -2 30 -40z"/>
<path d="M2710 2735 c0 -9 -9 -15 -25 -15 -14 0 -25 -4 -25 -10 0 -5 -7 -10
-15 -10 -8 0 -15 -7 -15 -15 0 -8 -7 -15 -15 -15 -8 0 -15 -7 -15 -15 0 -8 -4
-15 -10 -15 -5 0 -10 -11 -10 -25 0 -16 -6 -25 -15 -25 -12 0 -15 -17 -15 -90
0 -73 3 -90 15 -90 9 0 15 -9 15 -25 0 -14 5 -25 10 -25 6 0 10 -7 10 -15 0
-8 7 -15 15 -15 8 0 15 -7 15 -15 0 -8 7 -15 15 -15 8 0 15 -4 15 -10 0 -5 11
-10 25 -10 16 0 25 -6 25 -15 0 -12 17 -15 90 -15 73 0 90 3 90 15 0 9 9 15
25 15 14 0 25 5 25 10 0 6 7 10 15 10 8 0 15 5 15 10 0 6 11 21 25 34 14 13
25 33 25 45 0 12 6 21 15 21 12 0 15 17 15 90 0 73 -3 90 -15 90 -9 0 -15 9
-15 21 0 12 -11 32 -25 45 -14 13 -25 28 -25 34 0 5 -7 10 -15 10 -8 0 -15 5
-15 10 0 6 -11 10 -25 10 -16 0 -25 6 -25 15 0 12 -17 15 -90 15 -73 0 -90 -3
-90 -15z m170 -30 c0 -10 10 -15 30 -15 17 0 30 -5 30 -11 0 -14 25 -39 39
-39 6 0 11 -13 11 -30 0 -20 5 -30 15 -30 12 0 15 -16 15 -80 0 -64 -3 -80
-15 -80 -10 0 -15 -10 -15 -30 0 -16 -5 -30 -11 -30 -14 0 -39 -25 -39 -39 0
-6 -13 -11 -30 -11 -20 0 -30 -5 -30 -15 0 -12 -16 -15 -80 -15 -64 0 -80 3
-80 15 0 9 -10 15 -26 15 -31 0 -84 50 -84 80 0 11 -7 23 -15 26 -12 5 -15 24
-15 84 0 60 3 79 15 84 8 3 15 15 15 26 0 28 52 80 80 80 11 0 23 7 26 15 5
12 24 15 85 15 64 0 79 -3 79 -15z"/>
<path d="M2747 2663 c-4 -3 -7 -17 -7 -30 0 -18 -5 -23 -25 -23 -16 0 -25 -6
-25 -15 0 -9 9 -15 25 -15 23 0 25 -4 25 -42 0 -24 3 -60 6 -80 6 -37 6 -38
-25 -38 -21 0 -31 -5 -31 -15 0 -10 10 -15 30 -15 25 0 30 -4 30 -25 0 -14 5
-25 10 -25 6 0 10 11 10 25 0 16 6 25 15 25 9 0 15 -9 15 -25 0 -14 4 -25 10
-25 5 0 12 11 16 25 4 18 13 25 30 25 15 0 24 6 24 15 0 8 7 15 15 15 11 0 15
11 15 40 0 29 -4 40 -15 40 -8 0 -15 7 -15 15 0 8 7 15 15 15 22 0 19 36 -5
60 -11 11 -29 20 -40 20 -16 0 -20 7 -20 30 0 20 -5 30 -15 30 -10 0 -15 -10
-15 -30 0 -20 -5 -30 -15 -30 -10 0 -15 10 -15 30 0 29 -9 38 -23 23z m103
-108 c0 -20 -5 -25 -25 -25 -20 0 -25 5 -25 25 0 20 5 25 25 25 20 0 25 -5 25
-25z m10 -95 c0 -38 -2 -40 -30 -40 -28 0 -30 2 -30 40 0 38 2 40 30 40 28 0
30 -2 30 -40z"/>
<path d="M3960 2735 c0 -9 -9 -15 -25 -15 -14 0 -25 -4 -25 -10 0 -5 -7 -10
-15 -10 -8 0 -15 -7 -15 -15 0 -8 -7 -15 -15 -15 -8 0 -15 -7 -15 -15 0 -8 -7
-15 -15 -15 -9 0 -15 -9 -15 -25 0 -14 -4 -25 -10 -25 -6 0 -10 -37 -10 -90 0
-53 4 -90 10 -90 6 0 10 -11 10 -25 0 -16 6 -25 15 -25 8 0 15 -7 15 -15 0 -8
7 -15 15 -15 8 0 15 -7 15 -15 0 -8 7 -15 15 -15 8 0 15 -4 15 -10 0 -5 11
-10 25 -10 16 0 25 -6 25 -15 0 -12 16 -15 84 -15 65 0 85 3 90 15 3 8 15 15
26 15 22 0 80 50 80 69 0 6 7 11 15 11 9 0 15 9 15 25 0 16 6 25 15 25 12 0
15 17 15 90 0 73 -3 90 -15 90 -9 0 -15 9 -15 25 0 16 -6 25 -15 25 -8 0 -15
5 -15 11 0 19 -58 69 -80 69 -11 0 -23 7 -26 15 -5 12 -25 15 -90 15 -68 0
-84 -3 -84 -15z m170 -30 c0 -10 10 -15 30 -15 17 0 30 -5 30 -11 0 -14 25
-39 39 -39 6 0 11 -13 11 -30 0 -20 5 -30 15 -30 12 0 15 -16 15 -80 0 -64 -3
-80 -15 -80 -10 0 -15 -10 -15 -30 0 -16 -5 -30 -11 -30 -7 0 -22 -11 -35 -25
-13 -14 -32 -25 -44 -25 -11 0 -20 -7 -20 -15 0 -12 -15 -15 -79 -15 -61 0
-80 3 -85 15 -3 8 -17 15 -31 15 -14 0 -25 5 -25 10 0 6 -7 10 -15 10 -8 0
-15 6 -15 14 0 8 -7 17 -16 20 -10 4 -13 13 -9 26 4 13 1 22 -9 26 -13 5 -16
23 -16 85 0 46 4 79 10 79 6 0 10 14 10 30 0 20 5 30 15 30 8 0 15 7 15 15 0
8 7 15 15 15 8 0 15 5 15 10 0 6 11 10 25 10 14 0 28 7 31 15 5 12 24 15 85
15 64 0 79 -3 79 -15z"/>
<path d="M3990 2640 c0 -25 -4 -30 -25 -30 -16 0 -25 -6 -25 -15 0 -9 9 -15
25 -15 25 0 25 -1 25 -80 0 -79 0 -80 -25 -80 -16 0 -25 -6 -25 -15 0 -9 9
-15 24 -15 17 0 26 -7 30 -25 4 -14 11 -25 16 -25 6 0 10 11 10 25 0 16 6 25
15 25 9 0 15 -9 15 -25 0 -14 5 -25 10 -25 6 0 10 11 10 25 0 21 5 25 30 25
20 0 30 5 30 15 0 8 7 15 15 15 11 0 15 11 15 40 0 29 -4 40 -15 40 -8 0 -15
7 -15 15 0 8 7 15 15 15 9 0 15 9 15 25 0 16 -6 25 -15 25 -8 0 -15 7 -15 15
0 9 -9 15 -24 15 -19 0 -25 6 -28 27 -4 39 -28 42 -28 4 0 -21 -5 -31 -15 -31
-10 0 -15 10 -15 30 0 20 -5 30 -15 30 -10 0 -15 -10 -15 -30z m110 -85 c0
-20 -5 -25 -25 -25 -20 0 -25 5 -25 25 0 20 5 25 25 25 20 0 25 -5 25 -25z m0
-95 c0 -36 -2 -40 -25 -40 -22 0 -25 4 -25 40 0 36 3 40 25 40 23 0 25 -4 25
-40z"/>
<path d="M870 2115 c0 -10 -10 -15 -30 -15 -20 0 -30 -5 -30 -15 0 -8 -7 -15
-15 -15 -8 0 -15 -5 -15 -11 0 -14 -25 -39 -39 -39 -6 0 -11 -13 -11 -30 0
-20 -5 -30 -15 -30 -12 0 -15 -16 -15 -85 0 -69 3 -85 15 -85 10 0 15 -10 15
-30 0 -16 5 -30 11 -30 14 0 39 -25 39 -39 0 -6 7 -11 15 -11 8 0 15 -7 15
-15 0 -10 10 -15 30 -15 20 0 30 -5 30 -15 0 -12 16 -15 80 -15 62 0 82 3 86
15 4 8 17 15 30 15 15 0 24 6 24 15 0 8 7 15 15 15 8 0 15 7 15 15 0 8 -7 15
-15 15 -8 0 -15 -7 -15 -15 0 -10 -10 -15 -30 -15 -16 0 -30 -4 -30 -10 0 -6
-33 -10 -80 -10 -47 0 -80 4 -80 10 0 6 -13 10 -30 10 -16 0 -30 5 -30 11 0 7
-11 22 -25 35 -14 13 -25 32 -25 44 0 11 -7 20 -15 20 -12 0 -15 16 -15 85 0
69 3 85 15 85 8 0 15 9 15 20 0 12 11 31 25 44 14 13 25 28 25 35 0 6 14 11
30 11 20 0 30 5 30 15 0 12 16 15 80 15 64 0 80 -3 80 -15 0 -10 10 -15 30
-15 20 0 30 -5 30 -15 0 -8 7 -15 15 -15 8 0 15 -7 15 -15 0 -8 5 -15 10 -15
6 0 10 -11 10 -24 0 -13 7 -26 15 -30 12 -4 15 -24 15 -86 0 -44 -4 -80 -9
-80 -5 0 -13 -10 -17 -22 -4 -13 -14 -28 -23 -35 -15 -11 -15 -12 1 -18 22 -9
58 24 58 52 0 13 5 23 10 23 6 0 10 35 10 85 0 50 -4 85 -10 85 -5 0 -10 10
-10 23 0 22 -31 57 -50 57 -6 0 -10 7 -10 15 0 8 -7 15 -15 15 -8 0 -15 7 -15
15 0 9 -9 15 -24 15 -13 0 -26 7 -30 15 -4 12 -24 15 -86 15 -64 0 -80 -3 -80
-15z"/>
<path d="M2114 2115 c-4 -8 -17 -15 -30 -15 -15 0 -24 -6 -24 -15 0 -8 -7 -15
-15 -15 -8 0 -15 -7 -15 -15 0 -8 -5 -15 -11 -15 -19 0 -39 -28 -39 -54 0 -16
-6 -26 -15 -26 -12 0 -15 -16 -15 -85 0 -69 3 -85 15 -85 9 0 15 -10 15 -26 0
-32 25 -58 48 -49 16 6 16 7 0 19 -10 7 -18 23 -18 35 0 12 -6 21 -15 21 -12
0 -15 16 -15 85 0 69 3 85 15 85 9 0 15 9 15 25 0 14 5 25 10 25 6 0 10 7 10
15 0 8 7 15 15 15 8 0 15 7 15 15 0 10 10 15 30 15 20 0 30 5 30 15 0 12 16
15 80 15 64 0 80 -3 80 -15 0 -10 10 -15 30 -15 17 0 30 -5 30 -11 0 -7 11
-22 25 -35 14 -13 25 -32 25 -44 0 -11 7 -23 15 -26 12 -5 15 -24 15 -85 0
-64 -3 -79 -15 -79 -8 0 -15 -9 -15 -20 0 -12 -11 -31 -25 -44 -14 -13 -25
-28 -25 -35 0 -6 -13 -11 -30 -11 -16 0 -30 -4 -30 -10 0 -6 -33 -10 -80 -10
-47 0 -80 4 -80 10 0 6 -13 10 -30 10 -20 0 -30 5 -30 15 0 8 -7 15 -15 15 -8
0 -15 -7 -15 -15 0 -8 7 -15 15 -15 8 0 15 -7 15 -15 0 -9 9 -15 24 -15 13 0
26 -7 30 -15 4 -12 24 -15 86 -15 62 0 82 3 86 15 4 8 17 15 30 15 15 0 24 6
24 15 0 8 7 15 15 15 8 0 15 7 15 15 0 8 5 15 11 15 19 0 39 28 39 54 0 16 6
26 15 26 12 0 15 16 15 85 0 69 -3 85 -15 85 -9 0 -15 10 -15 26 0 26 -20 54
-39 54 -6 0 -11 7 -11 15 0 8 -7 15 -15 15 -8 0 -15 7 -15 15 0 9 -9 15 -24
15 -13 0 -26 7 -30 15 -4 12 -24 15 -86 15 -62 0 -82 -3 -86 -15z"/>
<path d="M3364 2115 c-4 -8 -17 -15 -30 -15 -15 0 -24 -6 -24 -15 0 -8 -7 -15
-15 -15 -8 0 -15 -7 -15 -15 0 -8 -4 -15 -10 -15 -19 0 -50 -35 -50 -57 0 -13
-4 -23 -10 -23 -6 0 -10 -35 -10 -85 0 -50 4 -85 10 -85 6 0 10 -10 10 -23 0
-22 31 -57 50 -57 6 0 10 -7 10 -15 0 -8 7 -15 15 -15 8 0 15 -7 15 -15 0 -9
9 -15 24 -15 13 0 26 -7 30 -15 4 -12 24 -15 86 -15 64 0 80 3 80 15 0 10 10
15 30 15 20 0 30 5 30 15 0 8 7 15 15 15 8 0 15 7 15 15 0 8 5 15 11 15 19 0
39 28 39 54 0 16 6 26 15 26 12 0 15 16 15 85 0 69 -3 85 -15 85 -9 0 -15 10
-15 26 0 26 -20 54 -39 54 -6 0 -11 7 -11 15 0 8 -7 15 -15 15 -8 0 -15 7 -15
15 0 10 -10 15 -30 15 -20 0 -30 5 -30 15 0 12 -16 15 -80 15 -62 0 -82 -3
-86 -15z m166 -30 c0 -10 10 -15 30 -15 20 0 30 -5 30 -15 0 -8 5 -15 10 -15
6 0 10 -7 10 -15 0 -8 7 -15 15 -15 9 0 15 -9 15 -25 0 -14 7 -28 15 -31 11
-5 15 -24 15 -80 0 -57 -4 -76 -15 -80 -8 -4 -15 -17 -15 -30 0 -15 -6 -24
-15 -24 -8 0 -15 -4 -15 -10 0 -17 -39 -50 -60 -50 -11 0 -20 -4 -20 -10 0 -6
-33 -10 -80 -10 -47 0 -80 4 -80 10 0 6 -13 10 -30 10 -20 0 -30 5 -30 15 0 8
-7 15 -15 15 -8 0 -15 7 -15 15 0 8 -4 15 -10 15 -5 0 -10 11 -10 25 0 16 -6
25 -15 25 -12 0 -15 16 -15 85 0 69 3 85 15 85 9 0 15 9 15 25 0 14 5 25 10
25 6 0 10 7 10 15 0 8 7 15 15 15 8 0 15 7 15 15 0 10 10 15 30 15 20 0 30 5
30 15 0 12 16 15 80 15 64 0 80 -3 80 -15z"/>
<path d="M3390 2015 c0 -20 -5 -25 -25 -25 -16 0 -25 -6 -25 -15 0 -9 9 -15
25 -15 25 0 25 -1 25 -85 0 -84 0 -85 -25 -85 -34 0 -32 -18 3 -22 21 -2 28
-9 30 -30 4 -38 22 -36 22 2 0 20 5 30 15 30 10 0 15 -10 15 -30 0 -38 18 -40
22 -2 2 21 9 28 31 30 15 2 27 8 27 13 0 5 7 9 15 9 11 0 15 11 15 40 0 27 -5
43 -15 46 -8 4 -15 10 -15 15 0 5 7 9 15 9 10 0 15 10 15 30 0 20 -5 30 -15
30 -8 0 -15 7 -15 15 0 9 -9 15 -25 15 -20 0 -25 5 -25 25 0 16 -6 25 -15 25
-9 0 -15 -9 -15 -25 0 -16 -6 -25 -15 -25 -9 0 -15 9 -15 25 0 16 -6 25 -15
25 -9 0 -15 -9 -15 -25z m110 -85 c0 -25 -4 -30 -25 -30 -21 0 -25 5 -25 30 0
25 4 30 25 30 21 0 25 -5 25 -30z m4 -85 c8 -43 2 -55 -30 -55 -22 0 -24 4
-24 45 0 41 2 45 24 45 19 0 25 -7 30 -35z"/>
<path d="M4610 2115 c0 -9 -9 -15 -25 -15 -16 0 -25 -6 -25 -15 0 -8 -7 -15
-15 -15 -8 0 -15 -7 -15 -15 0 -8 -4 -15 -10 -15 -19 0 -50 -35 -50 -57 0 -13
-4 -23 -10 -23 -6 0 -10 -35 -10 -85 0 -50 4 -85 10 -85 6 0 10 -10 10 -23 0
-22 31 -57 50 -57 6 0 10 -7 10 -15 0 -8 7 -15 15 -15 8 0 15 -7 15 -15 0 -9
9 -15 25 -15 16 0 25 -6 25 -15 0 -12 16 -15 85 -15 69 0 85 3 85 15 0 10 10
15 30 15 20 0 30 5 30 15 0 8 7 15 15 15 8 0 15 5 15 11 0 14 25 39 39 39 6 0
11 14 11 30 0 20 5 30 15 30 12 0 15 16 15 85 0 69 -3 85 -15 85 -10 0 -15 10
-15 30 0 17 -5 30 -11 30 -14 0 -39 25 -39 39 0 6 -7 11 -15 11 -8 0 -15 7
-15 15 0 10 -10 15 -30 15 -20 0 -30 5 -30 15 0 12 -16 15 -85 15 -69 0 -85
-3 -85 -15z m170 -30 c0 -9 9 -15 25 -15 16 0 25 -6 25 -15 0 -8 7 -15 15 -15
8 0 15 -7 15 -15 0 -8 7 -15 15 -15 9 0 15 -9 15 -25 0 -14 7 -28 15 -31 11
-5 15 -24 15 -80 0 -57 -4 -76 -15 -80 -8 -4 -15 -17 -15 -30 0 -15 -6 -24
-15 -24 -8 0 -15 -7 -15 -15 0 -8 -7 -15 -15 -15 -8 0 -15 -7 -15 -15 0 -9 -9
-15 -25 -15 -14 0 -25 -4 -25 -10 0 -6 -33 -10 -80 -10 -47 0 -80 4 -80 10 0
6 -13 10 -30 10 -20 0 -30 5 -30 15 0 8 -7 15 -15 15 -8 0 -15 7 -15 15 0 8
-7 15 -15 15 -9 0 -15 9 -15 25 0 14 -4 25 -10 25 -6 0 -10 35 -10 85 0 50 4
85 10 85 6 0 10 11 10 25 0 16 6 25 15 25 8 0 15 7 15 15 0 8 7 15 15 15 8 0
15 7 15 15 0 9 9 15 24 15 13 0 26 7 30 15 4 12 24 15 86 15 64 0 80 -3 80
-15z"/>
<path d="M4640 2015 c0 -20 -5 -25 -25 -25 -16 0 -25 -6 -25 -15 0 -9 9 -15
25 -15 25 0 25 -1 25 -85 0 -84 0 -85 -25 -85 -14 0 -25 -4 -25 -10 0 -5 11
-10 25 -10 21 0 25 -5 25 -30 0 -20 5 -30 15 -30 10 0 15 10 15 30 0 20 5 30
15 30 10 0 15 -10 15 -30 0 -38 18 -40 22 -2 2 21 9 28 31 30 15 2 27 8 27 13
0 5 7 9 15 9 11 0 15 11 15 40 0 27 -5 43 -15 46 -8 4 -15 10 -15 15 0 5 7 9
15 9 10 0 15 10 15 30 0 20 -5 30 -15 30 -8 0 -15 7 -15 15 0 9 -9 15 -25 15
-20 0 -25 5 -25 25 0 16 -6 25 -15 25 -9 0 -15 -9 -15 -25 0 -16 -6 -25 -15
-25 -9 0 -15 9 -15 25 0 16 -6 25 -15 25 -9 0 -15 -9 -15 -25z m110 -85 c0
-25 -4 -30 -25 -30 -21 0 -25 5 -25 30 0 25 4 30 25 30 21 0 25 -5 25 -30z
m-2 -97 c3 -40 1 -43 -22 -43 -24 0 -26 3 -26 46 0 41 2 45 23 42 18 -2 23
-10 25 -45z"/>
<path d="M900 2015 c0 -21 -5 -25 -30 -25 -20 0 -30 -5 -30 -15 0 -10 10 -15
30 -15 l30 0 0 -85 0 -85 -30 0 c-38 0 -40 -18 -2 -22 21 -2 28 -9 30 -30 4
-36 20 -36 24 -1 4 39 28 42 28 4 0 -21 5 -31 15 -31 10 0 15 10 15 30 0 25 4
30 25 30 14 0 25 5 25 10 0 6 7 10 15 10 19 0 21 85 3 94 -10 5 -10 7 0 12 34
16 -3 94 -45 94 -18 0 -23 6 -23 25 0 16 -6 25 -15 25 -9 0 -15 -9 -15 -25 0
-16 -6 -25 -15 -25 -9 0 -15 9 -15 25 0 14 -4 25 -10 25 -5 0 -10 -11 -10 -25z
m110 -85 c0 -27 -3 -30 -30 -30 -27 0 -30 3 -30 30 0 27 3 30 30 30 27 0 30
-3 30 -30z m-2 -97 c3 -42 2 -43 -27 -43 -29 0 -31 2 -31 38 0 45 6 54 35 50
16 -2 21 -12 23 -45z"/>
<path d="M2140 2015 c0 -20 -5 -25 -25 -25 -16 0 -25 -6 -25 -15 0 -9 9 -15
24 -15 21 0 24 -5 30 -61 11 -106 10 -109 -24 -109 -38 0 -40 -18 -2 -22 21
-2 28 -9 30 -30 4 -36 20 -36 24 -1 4 39 28 42 28 4 0 -21 5 -31 15 -31 10 0
15 10 15 30 0 25 4 30 25 30 14 0 25 5 25 10 0 6 7 10 15 10 11 0 15 12 15 45
0 33 -4 45 -15 45 -8 0 -15 5 -15 10 0 6 7 10 15 10 10 0 15 10 15 30 0 20 -5
30 -15 30 -8 0 -15 7 -15 15 0 9 -9 15 -25 15 -20 0 -25 5 -25 25 0 16 -6 25
-15 25 -9 0 -15 -9 -15 -25 0 -16 -6 -25 -15 -25 -9 0 -15 9 -15 25 0 16 -6
25 -15 25 -9 0 -15 -9 -15 -25z m115 -85 c0 -20 -6 -26 -27 -28 -25 -3 -28 0
-28 28 0 28 3 31 28 28 21 -2 27 -8 27 -28z m3 -97 c3 -42 2 -43 -27 -43 -29
0 -31 2 -31 38 0 45 6 54 35 50 16 -2 21 -12 23 -45z"/>
<path d="M216 1485 c-3 -8 -15 -15 -26 -15 -22 0 -80 -50 -80 -69 0 -6 -7 -11
-15 -11 -9 0 -15 -9 -15 -24 0 -13 -7 -26 -15 -30 -22 -8 -22 -164 0 -172 8
-4 15 -17 15 -30 0 -15 6 -24 15 -24 8 0 15 -5 15 -11 0 -19 58 -69 80 -69 11
0 23 -7 26 -15 5 -12 25 -15 90 -15 68 0 84 3 84 15 0 9 9 15 25 15 14 0 25 5
25 10 0 6 7 10 15 10 8 0 15 7 15 15 0 8 7 15 15 15 8 0 15 7 15 15 0 8 7 15
15 15 9 0 15 9 15 25 0 14 5 25 10 25 6 0 10 37 10 90 0 53 -4 90 -10 90 -5 0
-10 11 -10 25 0 16 -6 25 -15 25 -8 0 -15 7 -15 15 0 8 -7 15 -15 15 -8 0 -15
7 -15 15 0 8 -7 15 -15 15 -8 0 -15 5 -15 10 0 6 -11 10 -25 10 -16 0 -25 6
-25 15 0 12 -16 15 -84 15 -65 0 -85 -3 -90 -15z m174 -30 c0 -9 9 -15 25 -15
16 0 25 -6 25 -15 0 -8 5 -15 11 -15 17 0 39 -27 39 -50 0 -11 7 -23 15 -26
12 -5 15 -24 15 -85 0 -43 -4 -79 -9 -79 -5 0 -12 -12 -15 -26 -8 -29 -29 -54
-45 -54 -6 0 -11 -7 -11 -15 0 -9 -9 -15 -25 -15 -14 0 -28 -7 -31 -15 -5 -12
-24 -15 -85 -15 -64 0 -79 3 -79 15 0 9 -10 15 -26 15 -26 0 -54 20 -54 39 0
6 -7 11 -15 11 -10 0 -15 10 -15 30 0 20 -5 30 -15 30 -12 0 -15 16 -15 80 0
64 3 80 15 80 10 0 15 10 15 30 0 20 5 30 15 30 8 0 15 5 15 11 0 19 28 39 54
39 16 0 26 6 26 15 0 12 16 15 85 15 69 0 85 -3 85 -15z"/>
<path d="M250 1390 c0 -27 -3 -30 -30 -30 -20 0 -30 -5 -30 -15 0 -10 10 -15
30 -15 l30 0 0 -79 c0 -79 0 -80 -27 -83 -39 -4 -42 -28 -4 -28 26 0 31 -4 31
-25 0 -14 5 -25 10 -25 6 0 10 11 10 25 0 16 6 25 15 25 9 0 15 -9 15 -25 0
-16 6 -25 15 -25 9 0 15 9 15 25 0 18 5 25 20 25 32 0 60 36 60 75 0 19 -4 35
-10 35 -5 0 -10 7 -10 15 0 8 5 15 10 15 6 0 10 11 10 25 0 14 -4 25 -10 25
-5 0 -10 7 -10 15 0 10 -10 15 -30 15 -27 0 -30 3 -30 30 0 20 -5 30 -15 30
-10 0 -15 -10 -15 -30 0 -16 -4 -30 -9 -30 -5 0 -11 14 -14 30 -4 17 -11 30
-17 30 -5 0 -10 -13 -10 -30z m110 -85 c0 -21 -5 -25 -30 -25 -25 0 -30 4 -30
25 0 21 5 25 30 25 25 0 30 -4 30 -25z m0 -95 c0 -38 -2 -40 -30 -40 -28 0
-30 2 -30 40 0 38 2 40 30 40 28 0 30 -2 30 -40z"/>
<path d="M1466 1485 c-3 -8 -15 -15 -26 -15 -28 0 -110 -82 -110 -109 0 -12
-6 -21 -15 -21 -12 0 -15 -17 -15 -90 0 -73 3 -90 15 -90 9 0 15 -9 15 -21 0
-27 82 -109 110 -109 11 0 23 -7 26 -15 5 -12 25 -15 90 -15 68 0 84 3 84 15
0 9 9 15 25 15 14 0 25 5 25 10 0 6 7 10 15 10 8 0 15 7 15 15 0 8 7 15 15 15
8 0 15 7 15 15 0 8 7 15 15 15 9 0 15 9 15 25 0 14 5 25 10 25 6 0 10 37 10
90 0 53 -4 90 -10 90 -5 0 -10 11 -10 25 0 16 -6 25 -15 25 -8 0 -15 7 -15 15
0 8 -7 15 -15 15 -8 0 -15 7 -15 15 0 8 -7 15 -15 15 -8 0 -15 5 -15 10 0 6
-11 10 -25 10 -16 0 -25 6 -25 15 0 12 -16 15 -84 15 -65 0 -85 -3 -90 -15z
m168 -30 c3 -8 17 -15 31 -15 16 0 25 -6 25 -15 0 -8 5 -15 11 -15 19 0 39
-28 39 -54 0 -16 6 -26 15 -26 12 0 15 -15 15 -79 0 -61 -3 -80 -15 -85 -8 -3
-15 -17 -15 -31 0 -14 -5 -25 -11 -25 -14 0 -39 -25 -39 -39 0 -6 -13 -11 -30
-11 -20 0 -30 -5 -30 -15 0 -12 -16 -15 -80 -15 -64 0 -80 3 -80 15 0 9 -10
15 -26 15 -26 0 -54 20 -54 39 0 6 -7 11 -15 11 -10 0 -15 10 -15 30 0 20 -5
30 -15 30 -12 0 -15 16 -15 80 0 64 3 80 15 80 10 0 15 10 15 30 0 20 5 30 15
30 8 0 15 5 15 11 0 19 28 39 54 39 16 0 26 6 26 15 0 12 15 15 79 15 61 0 80
-3 85 -15z"/>
<path d="M1500 1390 c0 -27 -3 -30 -30 -30 -20 0 -30 -5 -30 -15 0 -10 10 -15
30 -15 l30 0 0 -79 c0 -79 0 -80 -27 -83 -39 -4 -42 -28 -4 -28 26 0 31 -4 31
-25 0 -14 5 -25 10 -25 6 0 10 11 10 25 0 16 6 25 15 25 9 0 15 -9 15 -25 0
-16 6 -25 15 -25 9 0 15 9 15 25 0 20 5 25 25 25 16 0 25 6 25 15 0 8 7 15 15
15 11 0 15 11 15 40 0 29 -4 40 -15 40 -8 0 -15 5 -15 10 0 6 7 13 15 16 17 7
21 54 5 54 -5 0 -10 7 -10 15 0 10 -10 15 -30 15 -27 0 -30 3 -30 30 0 20 -5
30 -15 30 -10 0 -15 -10 -15 -30 0 -20 -5 -30 -15 -30 -10 0 -15 10 -15 30 0
17 -4 30 -10 30 -5 0 -10 -13 -10 -30z m110 -85 c0 -21 -5 -25 -30 -25 -25 0
-30 4 -30 25 0 21 5 25 30 25 25 0 30 -4 30 -25z m0 -95 c0 -38 -2 -40 -30
-40 -28 0 -30 2 -30 40 0 38 2 40 30 40 28 0 30 -2 30 -40z"/>
<path d="M2710 1485 c0 -9 -9 -15 -25 -15 -14 0 -25 -4 -25 -10 0 -5 -7 -10
-15 -10 -8 0 -15 -7 -15 -15 0 -8 -7 -15 -15 -15 -8 0 -15 -7 -15 -15 0 -8 -4
-15 -10 -15 -5 0 -10 -11 -10 -25 0 -16 -6 -25 -15 -25 -12 0 -15 -17 -15 -90
0 -73 3 -90 15 -90 9 0 15 -9 15 -25 0 -14 5 -25 10 -25 6 0 10 -7 10 -15 0
-8 7 -15 15 -15 8 0 15 -7 15 -15 0 -8 7 -15 15 -15 8 0 15 -4 15 -10 0 -5 11
-10 25 -10 16 0 25 -6 25 -15 0 -12 17 -15 90 -15 73 0 90 3 90 15 0 9 9 15
25 15 14 0 25 5 25 10 0 6 7 10 15 10 8 0 15 5 15 10 0 6 11 21 25 34 14 13
25 33 25 45 0 12 6 21 15 21 12 0 15 17 15 90 0 73 -3 90 -15 90 -9 0 -15 9
-15 21 0 12 -11 32 -25 45 -14 13 -25 28 -25 34 0 5 -7 10 -15 10 -8 0 -15 5
-15 10 0 6 -11 10 -25 10 -16 0 -25 6 -25 15 0 12 -17 15 -90 15 -73 0 -90 -3
-90 -15z m170 -30 c0 -10 10 -15 30 -15 17 0 30 -5 30 -11 0 -14 25 -39 39
-39 6 0 11 -13 11 -30 0 -20 5 -30 15 -30 12 0 15 -16 15 -80 0 -64 -3 -80
-15 -80 -10 0 -15 -10 -15 -30 0 -16 -5 -30 -11 -30 -14 0 -39 -25 -39 -39 0
-6 -13 -11 -30 -11 -20 0 -30 -5 -30 -15 0 -12 -16 -15 -80 -15 -64 0 -80 3
-80 15 0 9 -10 15 -26 15 -31 0 -84 50 -84 80 0 11 -7 23 -15 26 -12 5 -15 24
-15 84 0 60 3 79 15 84 8 3 15 15 15 26 0 28 52 80 80 80 11 0 23 7 26 15 5
12 24 15 85 15 64 0 79 -3 79 -15z"/>
<path d="M2747 1413 c-4 -3 -7 -17 -7 -30 0 -18 -5 -23 -25 -23 -16 0 -25 -6
-25 -15 0 -9 9 -15 25 -15 23 0 25 -4 25 -42 0 -24 3 -60 6 -80 6 -37 6 -38
-25 -38 -21 0 -31 -5 -31 -15 0 -10 10 -15 30 -15 25 0 30 -4 30 -25 0 -14 5
-25 10 -25 6 0 10 11 10 25 0 16 6 25 15 25 9 0 15 -9 15 -25 0 -14 4 -25 10
-25 5 0 12 11 16 25 4 18 13 25 30 25 15 0 24 6 24 15 0 8 7 15 15 15 11 0 15
11 15 40 0 29 -4 40 -15 40 -8 0 -15 7 -15 15 0 8 7 15 15 15 22 0 19 36 -5
60 -11 11 -29 20 -40 20 -16 0 -20 7 -20 30 0 20 -5 30 -15 30 -10 0 -15 -10
-15 -30 0 -20 -5 -30 -15 -30 -10 0 -15 10 -15 30 0 29 -9 38 -23 23z m103
-108 c0 -20 -5 -25 -25 -25 -20 0 -25 5 -25 25 0 20 5 25 25 25 20 0 25 -5 25
-25z m10 -95 c0 -38 -2 -40 -30 -40 -28 0 -30 2 -30 40 0 38 2 40 30 40 28 0
30 -2 30 -40z"/>
<path d="M3960 1485 c0 -9 -9 -15 -25 -15 -14 0 -25 -4 -25 -10 0 -5 -7 -10
-15 -10 -8 0 -15 -7 -15 -15 0 -8 -7 -15 -15 -15 -8 0 -15 -7 -15 -15 0 -8 -7
-15 -15 -15 -9 0 -15 -9 -15 -25 0 -14 -4 -25 -10 -25 -6 0 -10 -37 -10 -90 0
-53 4 -90 10 -90 6 0 10 -11 10 -25 0 -16 6 -25 15 -25 8 0 15 -7 15 -15 0 -8
7 -15 15 -15 8 0 15 -7 15 -15 0 -8 7 -15 15 -15 8 0 15 -4 15 -10 0 -5 11
-10 25 -10 16 0 25 -6 25 -15 0 -12 16 -15 84 -15 65 0 85 3 90 15 3 8 15 15
26 15 22 0 80 50 80 69 0 6 7 11 15 11 9 0 15 9 15 25 0 16 6 25 15 25 12 0
15 17 15 90 0 73 -3 90 -15 90 -9 0 -15 9 -15 25 0 16 -6 25 -15 25 -8 0 -15
5 -15 11 0 19 -58 69 -80 69 -11 0 -23 7 -26 15 -5 12 -25 15 -90 15 -68 0
-84 -3 -84 -15z m170 -30 c0 -10 10 -15 30 -15 17 0 30 -5 30 -11 0 -14 25
-39 39 -39 6 0 11 -13 11 -30 0 -20 5 -30 15 -30 12 0 15 -16 15 -80 0 -64 -3
-80 -15 -80 -10 0 -15 -10 -15 -30 0 -16 -5 -30 -11 -30 -7 0 -22 -11 -35 -25
-13 -14 -32 -25 -44 -25 -11 0 -20 -7 -20 -15 0 -12 -15 -15 -79 -15 -61 0
-80 3 -85 15 -3 8 -17 15 -31 15 -14 0 -25 5 -25 10 0 6 -7 10 -15 10 -8 0
-15 6 -15 14 0 8 -7 17 -16 20 -10 4 -13 13 -9 26 4 13 1 22 -9 26 -13 5 -16
23 -16 85 0 46 4 79 10 79 6 0 10 14 10 30 0 20 5 30 15 30 8 0 15 7 15 15 0
8 7 15 15 15 8 0 15 5 15 10 0 6 11 10 25 10 14 0 28 7 31 15 5 12 24 15 85
15 64 0 79 -3 79 -15z"/>
<path d="M3990 1390 c0 -25 -4 -30 -25 -30 -16 0 -25 -6 -25 -15 0 -9 9 -15
25 -15 25 0 25 -1 25 -80 0 -79 0 -80 -25 -80 -16 0 -25 -6 -25 -15 0 -9 9
-15 24 -15 17 0 26 -7 30 -25 4 -14 11 -25 16 -25 6 0 10 11 10 25 0 16 6 25
15 25 9 0 15 -9 15 -25 0 -14 5 -25 10 -25 6 0 10 11 10 25 0 21 5 25 30 25
20 0 30 5 30 15 0 8 7 15 15 15 11 0 15 11 15 40 0 29 -4 40 -15 40 -8 0 -15
7 -15 15 0 8 7 15 15 15 9 0 15 9 15 25 0 16 -6 25 -15 25 -8 0 -15 7 -15 15
0 9 -9 15 -24 15 -19 0 -25 6 -28 27 -4 39 -28 42 -28 4 0 -21 -5 -31 -15 -31
-10 0 -15 10 -15 30 0 20 -5 30 -15 30 -10 0 -15 -10 -15 -30z m110 -85 c0
-20 -5 -25 -25 -25 -20 0 -25 5 -25 25 0 20 5 25 25 25 20 0 25 -5 25 -25z m0
-95 c0 -36 -2 -40 -25 -40 -22 0 -25 4 -25 40 0 36 3 40 25 40 23 0 25 -4 25
-40z"/>
<path d="M870 865 c0 -10 -10 -15 -30 -15 -20 0 -30 -5 -30 -15 0 -8 -7 -15
-15 -15 -8 0 -15 -5 -15 -11 0 -6 -6 -17 -14 -25 -8 -8 -19 -14 -25 -14 -6 0
-11 -13 -11 -30 0 -20 -5 -30 -15 -30 -12 0 -15 -16 -15 -85 0 -69 3 -85 15
-85 10 0 15 -10 15 -30 0 -16 5 -30 11 -30 14 0 39 -25 39 -39 0 -6 7 -11 15
-11 8 0 15 -7 15 -15 0 -10 10 -15 30 -15 20 0 30 -5 30 -15 0 -22 158 -22
166 0 4 8 17 15 30 15 15 0 24 6 24 15 0 8 7 15 15 15 8 0 15 7 15 15 0 8 -7
15 -15 15 -8 0 -15 -7 -15 -15 0 -10 -10 -15 -30 -15 -16 0 -30 -4 -30 -10 0
-6 -33 -10 -80 -10 -47 0 -80 4 -80 10 0 6 -13 10 -30 10 -16 0 -30 5 -30 11
0 7 -11 22 -25 35 -14 13 -25 32 -25 44 0 11 -7 20 -15 20 -12 0 -15 16 -15
85 0 69 3 85 15 85 8 0 15 9 15 20 0 12 11 31 25 44 14 13 25 28 25 35 0 6 14
11 30 11 20 0 30 5 30 15 0 12 16 15 80 15 64 0 80 -3 80 -15 0 -10 10 -15 30
-15 20 0 30 -5 30 -15 0 -8 7 -15 15 -15 8 0 15 -7 15 -15 0 -8 5 -15 10 -15
6 0 10 -11 10 -25 0 -14 7 -28 15 -31 12 -5 15 -24 15 -85 0 -43 -4 -79 -9
-79 -5 0 -13 -10 -17 -22 -4 -13 -14 -28 -23 -35 -15 -11 -15 -12 1 -18 22 -9
58 24 58 52 0 13 5 23 10 23 6 0 10 35 10 85 0 50 -4 85 -10 85 -5 0 -10 10
-10 23 0 22 -31 57 -50 57 -6 0 -10 7 -10 15 0 8 -7 15 -15 15 -8 0 -15 7 -15
15 0 9 -9 15 -24 15 -13 0 -26 7 -30 15 -4 12 -24 15 -86 15 -64 0 -80 -3 -80
-15z"/>
<path d="M2114 865 c-4 -8 -17 -15 -30 -15 -15 0 -24 -6 -24 -15 0 -8 -7 -15
-15 -15 -8 0 -15 -7 -15 -15 0 -8 -5 -15 -11 -15 -19 0 -39 -28 -39 -54 0 -16
-6 -26 -15 -26 -12 0 -15 -16 -15 -85 0 -69 3 -85 15 -85 9 0 15 -10 15 -26 0
-32 25 -58 48 -49 16 6 16 7 0 19 -10 7 -18 23 -18 35 0 12 -6 21 -15 21 -12
0 -15 16 -15 85 0 69 3 85 15 85 9 0 15 9 15 25 0 14 5 25 10 25 6 0 10 7 10
15 0 8 7 15 15 15 8 0 15 7 15 15 0 10 10 15 30 15 20 0 30 5 30 15 0 12 16
15 80 15 64 0 80 -3 80 -15 0 -10 10 -15 30 -15 17 0 30 -5 30 -11 0 -7 11
-22 25 -35 14 -13 25 -32 25 -44 0 -11 7 -23 15 -26 12 -5 15 -24 15 -85 0
-64 -3 -79 -15 -79 -8 0 -15 -9 -15 -20 0 -12 -11 -31 -25 -44 -14 -13 -25
-28 -25 -35 0 -6 -13 -11 -30 -11 -16 0 -30 -4 -30 -10 0 -6 -33 -10 -80 -10
-47 0 -80 4 -80 10 0 6 -13 10 -30 10 -20 0 -30 5 -30 15 0 8 -7 15 -15 15 -8
0 -15 -7 -15 -15 0 -8 7 -15 15 -15 8 0 15 -7 15 -15 0 -9 9 -15 24 -15 13 0
26 -7 30 -15 8 -22 164 -22 172 0 4 8 17 15 30 15 15 0 24 6 24 15 0 8 7 15
15 15 8 0 15 7 15 15 0 8 5 15 11 15 19 0 39 28 39 54 0 16 6 26 15 26 12 0
15 16 15 85 0 69 -3 85 -15 85 -9 0 -15 10 -15 26 0 26 -20 54 -39 54 -6 0
-11 7 -11 15 0 8 -7 15 -15 15 -8 0 -15 7 -15 15 0 9 -9 15 -24 15 -13 0 -26
7 -30 15 -4 12 -24 15 -86 15 -62 0 -82 -3 -86 -15z"/>
<path d="M3364 865 c-4 -8 -17 -15 -30 -15 -15 0 -24 -6 -24 -15 0 -8 -7 -15
-15 -15 -8 0 -15 -7 -15 -15 0 -8 -4 -15 -10 -15 -19 0 -50 -35 -50 -57 0 -13
-4 -23 -10 -23 -6 0 -10 -35 -10 -85 0 -50 4 -85 10 -85 6 0 10 -10 10 -23 0
-22 31 -57 50 -57 6 0 10 -7 10 -15 0 -8 7 -15 15 -15 8 0 15 -7 15 -15 0 -9
9 -15 24 -15 13 0 26 -7 30 -15 8 -22 166 -22 166 0 0 10 10 15 30 15 20 0 30
5 30 15 0 8 7 15 15 15 8 0 15 7 15 15 0 8 5 15 11 15 19 0 39 28 39 54 0 16
6 26 15 26 12 0 15 16 15 85 0 69 -3 85 -15 85 -9 0 -15 10 -15 26 0 26 -20
54 -39 54 -6 0 -11 7 -11 15 0 8 -7 15 -15 15 -8 0 -15 7 -15 15 0 10 -10 15
-30 15 -20 0 -30 5 -30 15 0 12 -16 15 -80 15 -62 0 -82 -3 -86 -15z m166 -30
c0 -10 10 -15 30 -15 20 0 30 -5 30 -15 0 -8 5 -15 10 -15 6 0 10 -7 10 -15 0
-8 7 -15 15 -15 9 0 15 -9 15 -25 0 -14 7 -28 15 -31 11 -5 15 -24 15 -80 0
-57 -4 -76 -15 -80 -8 -4 -15 -17 -15 -30 0 -15 -6 -24 -15 -24 -8 0 -15 -4
-15 -10 0 -17 -39 -50 -60 -50 -11 0 -20 -4 -20 -10 0 -6 -33 -10 -80 -10 -47
0 -80 4 -80 10 0 6 -13 10 -30 10 -20 0 -30 5 -30 15 0 8 -7 15 -15 15 -8 0
-15 7 -15 15 0 8 -4 15 -10 15 -5 0 -10 11 -10 25 0 16 -6 25 -15 25 -12 0
-15 16 -15 85 0 69 3 85 15 85 9 0 15 9 15 25 0 14 5 25 10 25 6 0 10 7 10 15
0 8 7 15 15 15 8 0 15 7 15 15 0 10 10 15 30 15 20 0 30 5 30 15 0 12 16 15
80 15 64 0 80 -3 80 -15z"/>
<path d="M3390 765 c0 -20 -5 -25 -25 -25 -16 0 -25 -6 -25 -15 0 -9 9 -15 25
-15 25 0 25 -1 25 -85 0 -84 0 -85 -25 -85 -34 0 -32 -18 3 -22 21 -2 28 -9
30 -30 4 -38 22 -36 22 2 0 20 5 30 15 30 10 0 15 -10 15 -30 0 -38 18 -40 22
-2 2 21 9 28 31 30 15 2 27 8 27 13 0 5 7 9 15 9 11 0 15 11 15 40 0 27 -5 43
-15 46 -8 4 -15 10 -15 15 0 5 7 9 15 9 10 0 15 10 15 30 0 20 -5 30 -15 30
-8 0 -15 7 -15 15 0 9 -9 15 -25 15 -20 0 -25 5 -25 25 0 16 -6 25 -15 25 -9
0 -15 -9 -15 -25 0 -16 -6 -25 -15 -25 -9 0 -15 9 -15 25 0 16 -6 25 -15 25
-9 0 -15 -9 -15 -25z m110 -85 c0 -25 -4 -30 -25 -30 -21 0 -25 5 -25 30 0 25
4 30 25 30 21 0 25 -5 25 -30z m3 -87 c5 -47 2 -53 -29 -53 -22 0 -24 4 -24
45 0 41 2 45 24 45 20 0 25 -6 29 -37z"/>
<path d="M4610 865 c0 -9 -9 -15 -25 -15 -16 0 -25 -6 -25 -15 0 -8 -7 -15
-15 -15 -8 0 -15 -7 -15 -15 0 -8 -4 -15 -10 -15 -19 0 -50 -35 -50 -57 0 -13
-4 -23 -10 -23 -6 0 -10 -35 -10 -85 0 -50 4 -85 10 -85 6 0 10 -10 10 -23 0
-22 31 -57 50 -57 6 0 10 -7 10 -15 0 -8 7 -15 15 -15 8 0 15 -7 15 -15 0 -9
9 -15 25 -15 16 0 25 -6 25 -15 0 -12 16 -15 85 -15 69 0 85 3 85 15 0 10 10
15 30 15 20 0 30 5 30 15 0 8 7 15 15 15 8 0 15 5 15 11 0 14 25 39 39 39 6 0
11 14 11 30 0 20 5 30 15 30 12 0 15 16 15 85 0 69 -3 85 -15 85 -10 0 -15 10
-15 30 0 17 -5 30 -11 30 -14 0 -39 25 -39 39 0 6 -7 11 -15 11 -8 0 -15 7
-15 15 0 10 -10 15 -30 15 -20 0 -30 5 -30 15 0 12 -16 15 -85 15 -69 0 -85
-3 -85 -15z m170 -30 c0 -9 9 -15 25 -15 16 0 25 -6 25 -15 0 -8 7 -15 15 -15
8 0 15 -7 15 -15 0 -8 7 -15 15 -15 9 0 15 -9 15 -25 0 -14 7 -28 15 -31 11
-5 15 -24 15 -80 0 -57 -4 -76 -15 -80 -8 -4 -15 -17 -15 -30 0 -15 -6 -24
-15 -24 -8 0 -15 -7 -15 -15 0 -8 -7 -15 -15 -15 -8 0 -15 -7 -15 -15 0 -9 -9
-15 -25 -15 -14 0 -25 -4 -25 -10 0 -6 -33 -10 -80 -10 -47 0 -80 4 -80 10 0
6 -13 10 -30 10 -20 0 -30 5 -30 15 0 8 -7 15 -15 15 -8 0 -15 7 -15 15 0 8
-7 15 -15 15 -9 0 -15 9 -15 25 0 14 -4 25 -10 25 -6 0 -10 35 -10 85 0 50 4
85 10 85 6 0 10 11 10 25 0 16 6 25 15 25 8 0 15 7 15 15 0 8 7 15 15 15 8 0
15 7 15 15 0 9 9 15 24 15 13 0 26 7 30 15 4 12 24 15 86 15 64 0 80 -3 80
-15z"/>
<path d="M4640 765 c0 -20 -5 -25 -25 -25 -16 0 -25 -6 -25 -15 0 -9 9 -15 25
-15 25 0 25 -1 25 -85 0 -84 0 -85 -25 -85 -14 0 -25 -4 -25 -10 0 -5 11 -10
25 -10 21 0 25 -5 25 -30 0 -20 5 -30 15 -30 10 0 15 10 15 30 0 20 5 30 15
30 10 0 15 -10 15 -30 0 -38 18 -40 22 -2 2 21 9 28 31 30 15 2 27 8 27 13 0
5 7 9 15 9 11 0 15 11 15 40 0 27 -5 43 -15 46 -8 4 -15 10 -15 15 0 5 7 9 15
9 10 0 15 10 15 30 0 20 -5 30 -15 30 -8 0 -15 7 -15 15 0 9 -9 15 -25 15 -20
0 -25 5 -25 25 0 16 -6 25 -15 25 -9 0 -15 -9 -15 -25 0 -16 -6 -25 -15 -25
-9 0 -15 9 -15 25 0 16 -6 25 -15 25 -9 0 -15 -9 -15 -25z m110 -85 c0 -25 -4
-30 -25 -30 -21 0 -25 5 -25 30 0 25 4 30 25 30 21 0 25 -5 25 -30z m-2 -97
c3 -40 1 -43 -22 -43 -24 0 -26 3 -26 46 0 41 2 45 23 42 18 -2 23 -10 25 -45z"/>
<path d="M900 765 c0 -21 -5 -25 -30 -25 -20 0 -30 -5 -30 -15 0 -10 10 -15
30 -15 l30 0 0 -85 0 -85 -30 0 c-38 0 -40 -18 -2 -22 21 -2 28 -9 30 -30 4
-36 20 -36 24 -1 4 39 28 42 28 4 0 -21 5 -31 15 -31 10 0 15 10 15 30 0 25 4
30 25 30 14 0 25 5 25 10 0 6 7 10 15 10 19 0 21 85 3 94 -10 5 -10 7 0 12 34
16 -3 94 -45 94 -18 0 -23 6 -23 25 0 16 -6 25 -15 25 -9 0 -15 -9 -15 -25 0
-16 -6 -25 -15 -25 -9 0 -15 9 -15 25 0 14 -4 25 -10 25 -5 0 -10 -11 -10 -25z
m110 -85 c0 -27 -3 -30 -30 -30 -27 0 -30 3 -30 30 0 27 3 30 30 30 27 0 30
-3 30 -30z m-2 -97 c3 -42 2 -43 -27 -43 -29 0 -31 2 -31 38 0 45 6 54 35 50
16 -2 21 -12 23 -45z"/>
<path d="M2140 765 c0 -20 -5 -25 -25 -25 -16 0 -25 -6 -25 -15 0 -9 9 -15 24
-15 21 0 24 -5 30 -61 11 -106 10 -109 -24 -109 -38 0 -40 -18 -2 -22 21 -2
28 -9 30 -30 4 -36 20 -36 24 -1 4 39 28 42 28 4 0 -21 5 -31 15 -31 10 0 15
10 15 30 0 25 4 30 25 30 14 0 25 5 25 10 0 6 7 10 15 10 11 0 15 12 15 45 0
33 -4 45 -15 45 -8 0 -15 5 -15 10 0 6 7 10 15 10 10 0 15 10 15 30 0 20 -5
30 -15 30 -8 0 -15 7 -15 15 0 9 -9 15 -25 15 -20 0 -25 5 -25 25 0 16 -6 25
-15 25 -9 0 -15 -9 -15 -25 0 -16 -6 -25 -15 -25 -9 0 -15 9 -15 25 0 16 -6
25 -15 25 -9 0 -15 -9 -15 -25z m115 -85 c0 -20 -6 -26 -27 -28 -25 -3 -28 0
-28 28 0 28 3 31 28 28 21 -2 27 -8 27 -28z m3 -97 c3 -42 2 -43 -27 -43 -29
0 -31 2 -31 38 0 45 6 54 35 50 16 -2 21 -12 23 -45z"/>
<path d="M216 235 c-3 -8 -15 -15 -26 -15 -22 0 -80 -50 -80 -69 0 -6 -7 -11
-15 -11 -9 0 -15 -9 -15 -24 0 -13 -7 -26 -15 -30 -10 -3 -15 -19 -15 -46 0
-29 4 -40 15 -40 11 0 15 11 15 40 0 29 4 40 15 40 10 0 15 10 15 30 0 20 5
30 15 30 8 0 15 5 15 11 0 19 28 39 54 39 16 0 26 6 26 15 0 12 16 15 85 15
69 0 85 -3 85 -15 0 -9 9 -15 25 -15 16 0 25 -6 25 -15 0 -8 5 -15 11 -15 17
0 39 -27 39 -50 0 -11 7 -23 15 -26 10 -4 15 -20 15 -45 0 -28 4 -39 15 -39
11 0 15 12 15 45 0 25 -4 45 -10 45 -5 0 -10 11 -10 25 0 16 -6 25 -15 25 -8
0 -15 7 -15 15 0 8 -7 15 -15 15 -8 0 -15 7 -15 15 0 8 -7 15 -15 15 -8 0 -15
5 -15 10 0 6 -11 10 -25 10 -16 0 -25 6 -25 15 0 22 -165 22 -174 0z"/>
<path d="M1466 235 c-3 -8 -15 -15 -26 -15 -28 0 -110 -82 -110 -109 0 -12 -6
-21 -15 -21 -11 0 -15 -12 -15 -45 0 -33 4 -45 15 -45 11 0 15 11 15 40 0 29
4 40 15 40 10 0 15 10 15 30 0 20 5 30 15 30 8 0 15 5 15 11 0 19 28 39 54 39
16 0 26 6 26 15 0 12 15 15 79 15 61 0 80 -3 85 -15 3 -8 17 -15 31 -15 16 0
25 -6 25 -15 0 -8 5 -15 11 -15 19 0 39 -28 39 -54 0 -16 6 -26 15 -26 11 0
15 -11 15 -40 0 -29 4 -40 15 -40 11 0 15 12 15 45 0 25 -4 45 -10 45 -5 0
-10 11 -10 25 0 16 -6 25 -15 25 -8 0 -15 7 -15 15 0 8 -7 15 -15 15 -8 0 -15
7 -15 15 0 8 -7 15 -15 15 -8 0 -15 5 -15 10 0 6 -11 10 -25 10 -16 0 -25 6
-25 15 0 12 -16 15 -84 15 -65 0 -85 -3 -90 -15z"/>
<path d="M2710 235 c0 -9 -9 -15 -25 -15 -14 0 -25 -4 -25 -10 0 -5 -7 -10
-15 -10 -8 0 -15 -7 -15 -15 0 -8 -7 -15 -15 -15 -8 0 -15 -7 -15 -15 0 -8 -4
-15 -10 -15 -5 0 -10 -11 -10 -25 0 -16 -6 -25 -15 -25 -11 0 -15 -12 -15 -45
0 -33 4 -45 15 -45 11 0 15 11 15 39 0 25 5 41 15 45 8 3 15 15 15 26 0 28 52
80 80 80 11 0 23 7 26 15 5 12 24 15 85 15 64 0 79 -3 79 -15 0 -10 10 -15 30
-15 17 0 30 -5 30 -11 0 -14 25 -39 39 -39 6 0 11 -13 11 -30 0 -20 5 -30 15
-30 11 0 15 -11 15 -40 0 -29 4 -40 15 -40 11 0 15 12 15 45 0 33 -4 45 -15
45 -9 0 -15 9 -15 21 0 12 -11 32 -25 45 -14 13 -25 28 -25 34 0 5 -7 10 -15
10 -8 0 -15 5 -15 10 0 6 -11 10 -25 10 -16 0 -25 6 -25 15 0 12 -17 15 -90
15 -73 0 -90 -3 -90 -15z"/>
<path d="M3960 235 c0 -9 -9 -15 -25 -15 -14 0 -25 -4 -25 -10 0 -5 -7 -10
-15 -10 -8 0 -15 -7 -15 -15 0 -8 -7 -15 -15 -15 -8 0 -15 -7 -15 -15 0 -8 -7
-15 -15 -15 -9 0 -15 -9 -15 -25 0 -14 -4 -25 -10 -25 -5 0 -10 -20 -10 -45 0
-33 4 -45 15 -45 11 0 15 11 15 40 0 22 5 40 10 40 6 0 10 14 10 30 0 20 5 30
15 30 8 0 15 7 15 15 0 8 7 15 15 15 8 0 15 5 15 10 0 6 11 10 25 10 14 0 28
7 31 15 5 12 24 15 85 15 64 0 79 -3 79 -15 0 -10 10 -15 30 -15 17 0 30 -5
30 -11 0 -14 25 -39 39 -39 6 0 11 -13 11 -30 0 -20 5 -30 15 -30 11 0 15 -11
15 -40 0 -29 4 -40 15 -40 11 0 15 12 15 45 0 33 -4 45 -15 45 -9 0 -15 9 -15
25 0 16 -6 25 -15 25 -8 0 -15 5 -15 11 0 19 -58 69 -80 69 -11 0 -23 7 -26
15 -5 12 -25 15 -90 15 -68 0 -84 -3 -84 -15z"/>
<path d="M250 141 c0 -28 -3 -31 -30 -31 -20 0 -30 -5 -30 -15 0 -10 10 -15
30 -15 28 0 30 -2 30 -40 l0 -40 70 0 c56 0 70 3 70 15 0 8 5 15 10 15 6 0 10
11 10 25 0 14 -4 25 -10 25 -5 0 -10 7 -10 15 0 10 -10 15 -30 15 -27 0 -30 3
-30 30 0 20 -5 30 -15 30 -10 0 -15 -10 -15 -30 0 -37 -18 -40 -22 -3 -4 39
-28 42 -28 4z m110 -86 c0 -21 -5 -25 -30 -25 -25 0 -30 4 -30 25 0 21 5 25
30 25 25 0 30 -4 30 -25z"/>
<path d="M1500 140 c0 -27 -3 -30 -30 -30 -20 0 -30 -5 -30 -15 0 -10 10 -15
30 -15 28 0 30 -2 30 -40 l0 -40 60 0 c47 0 64 4 80 20 21 21 27 60 10 60 -5
0 -10 7 -10 15 0 10 -10 15 -30 15 -27 0 -30 3 -30 30 0 20 -5 30 -15 30 -10
0 -15 -10 -15 -30 0 -20 -5 -30 -15 -30 -10 0 -15 10 -15 30 0 17 -4 30 -10
30 -5 0 -10 -13 -10 -30z m110 -85 c0 -21 -5 -25 -30 -25 -25 0 -30 4 -30 25
0 21 5 25 30 25 25 0 30 -4 30 -25z"/>
<path d="M2747 163 c-4 -3 -7 -17 -7 -30 0 -18 -5 -23 -25 -23 -16 0 -25 -6
-25 -15 0 -9 9 -15 25 -15 23 0 25 -4 25 -40 l0 -40 70 0 c56 0 70 3 70 15 0
8 7 15 15 15 22 0 19 36 -5 60 -11 11 -29 20 -40 20 -16 0 -20 7 -20 30 0 20
-5 30 -15 30 -10 0 -15 -10 -15 -30 0 -20 -5 -30 -15 -30 -10 0 -15 10 -15 30
0 29 -9 38 -23 23z m103 -108 c0 -20 -5 -25 -25 -25 -20 0 -25 5 -25 25 0 20
5 25 25 25 20 0 25 -5 25 -25z"/>
<path d="M3990 140 c0 -25 -4 -30 -25 -30 -16 0 -25 -6 -25 -15 0 -9 9 -15 25
-15 23 0 25 -4 25 -40 l0 -40 70 0 c56 0 70 3 70 15 0 8 7 15 15 15 9 0 15 9
15 25 0 16 -6 25 -15 25 -8 0 -15 7 -15 15 0 9 -9 15 -24 15 -19 0 -25 6 -28
27 -4 39 -28 42 -28 4 0 -21 -5 -31 -15 -31 -10 0 -15 10 -15 30 0 20 -5 30
-15 30 -10 0 -15 -10 -15 -30z m110 -85 c0 -20 -5 -25 -25 -25 -20 0 -25 5
-25 25 0 20 5 25 25 25 20 0 25 -5 25 -25z"/>
</g>
</svg>